<?xml version="1.0" encoding="UTF-8" standalone="no" ?>
<!DOCTYPE svg PUBLIC "-//W3C//DTD SVG 1.1//EN" "http://www.w3.org/Graphics/SVG/1.1/DTD/svg11.dtd">
<svg xmlns="http://www.w3.org/2000/svg" xmlns:xlink="http://www.w3.org/1999/xlink" version="1.1" width="1280" height="1024" viewBox="0 0 1280 1024" xml:space="preserve">
<desc>Created with Fabric.js 5.3.0</desc>
<defs>
</defs>
<g transform="matrix(1 0 0 1 640 512)" id="background-logo"  >
<rect style="stroke: none; stroke-width: 0; stroke-dasharray: none; stroke-linecap: butt; stroke-dashoffset: 0; stroke-linejoin: miter; stroke-miterlimit: 4; fill: rgb(255,255,255); fill-opacity: 0; fill-rule: nonzero; opacity: 1;"  paint-order="stroke"  x="-640" y="-512" rx="0" ry="0" width="1280" height="1024" />
</g>
<g transform="matrix(-1.5853213293637125 2.8599953856225158 -2.8599953856225153 -1.5853213293637123 632.4044712486049 511.9999999999999)" id="shape-9e9bb0b7-bd9f-4f63-840c-4df6e5d7a767"  >
<g style=""  paint-order="stroke"   >
		<g transform="matrix(1 0 0 1 0 0)" id="path-3"  >
<linearGradient id="SVGID_52288" gradientUnits="userSpaceOnUse" gradientTransform="matrix(1 0 0 1 -0.00001217446390455734 0.0020252779923879416)"  x1="138.61500608723196" y1="0" x2="138.61500608723196" y2="130.01948037101903">
<stop offset="0%" style="stop-color:rgb(240,207,15);stop-opacity: 1"/>
<stop offset="100%" style="stop-color:rgb(247,66,28);stop-opacity: 1"/>
</linearGradient>
<path style="stroke: none; stroke-width: 1; stroke-dasharray: none; stroke-linecap: butt; stroke-dashoffset: 0; stroke-linejoin: miter; stroke-miterlimit: 4; fill: url(#SVGID_52288); fill-rule: nonzero; opacity: 1;"  paint-order="stroke"  transform=" translate(-138.61499391276806, -65.0117654635019)" d="M 28.44 65.5 C 28.44 73.45 34.9 79.91 42.85 79.91 C 50.800000000000004 79.91 57.260000000000005 73.45 57.260000000000005 65.5 C 57.260000000000005 57.55 50.800000000000004 51.09 42.85000000000001 51.09 C 34.90000000000001 51.09 28.44000000000001 57.550000000000004 28.44000000000001 65.5 Z M 53.260000000000005 65.5 C 53.260000000000005 71.24 48.59 75.91 42.85000000000001 75.91 C 37.110000000000014 75.91 32.44000000000001 71.24 32.44000000000001 65.5 C 32.44000000000001 59.760000000000005 37.110000000000014 55.09 42.85000000000001 55.09 C 48.59 55.09 53.260000000000005 59.760000000000005 53.260000000000005 65.5 Z M 125.06 86.15 C 123.86 93.55000000000001 119.92 100.26 115.32000000000001 106.07000000000001 C 76.52 152.88 0.86 126.68 0 65.5 C -0.03 14.79 55.39 -16.9 98.84 9.55 C 111.62 17.32 122.27000000000001 29.990000000000002 125.06 44.849999999999994 C 118.15 32.10999999999999 109.21000000000001 20.529999999999994 96.56 13.389999999999993 C 47.33 -13.92 -8.85 32.72 9.45 86.1 C 21.95 121.53 64.42 137.57999999999998 96.98 118.28999999999999 C 103.99000000000001 114.25999999999999 109.97 108.61999999999999 115.03 102.32999999999998 C 118.92 97.26999999999998 121.8 91.61999999999998 125.06 86.13999999999999 Z M 277.23 73.95 C 276.70000000000005 75.07000000000001 275.84000000000003 75.63000000000001 274.97 76.18 C 274.34000000000003 76.63000000000001 273.04 77.43 272.37 77.82000000000001 C 267.19 80.86000000000001 261.58 84.53 256.29 87.45 C 256.11 87.45 242.69000000000003 87.69 242.79000000000002 87.69 L 242.3 87.13 L 234.20000000000002 77.77 C 231.59 81.21 228.97000000000003 84.64999999999999 226.31000000000003 88.06 C 219.69000000000003 88.09 213.07000000000002 88.17 206.45000000000005 88.15 L 205.90000000000003 87.03 L 200.94000000000003 76.99000000000001 L 192.82000000000002 76.99000000000001 L 185.8 87.25000000000001 L 185.21 88.11000000000001 C 179.96 88.11000000000001 174.70000000000002 88.07000000000001 169.45000000000002 88.01000000000002 L 168.92000000000002 87.16000000000003 L 162.35000000000002 76.74000000000002 L 152.22000000000003 76.56000000000002 L 145.72000000000003 86.86000000000001 L 145.30000000000004 87.52000000000001 L 144.55000000000004 87.52000000000001 C 138.03000000000003 87.41000000000001 131.53000000000003 87.21000000000001 125.06000000000004 86.15 C 131.27000000000004 85.13000000000001 137.50000000000006 84.9 143.76000000000005 84.80000000000001 L 150.02000000000004 74.16000000000001 L 150.46000000000004 73.42000000000002 L 151.37000000000003 73.42000000000002 C 151.37000000000003 73.42000000000002 163.33000000000004 73.27000000000001 163.33000000000004 73.27000000000001 L 164.26000000000005 73.27000000000001 C 164.26000000000005 73.27000000000001 164.79000000000005 74.07000000000001 164.79000000000005 74.07000000000001 L 171.50000000000006 84.27000000000001 C 175.38000000000005 84.23 179.25000000000006 84.20000000000002 183.13000000000005 84.19000000000001 L 190.10000000000005 73.85000000000001 L 190.69000000000005 72.97000000000001 C 192.31000000000006 72.97000000000001 201.85000000000005 72.97000000000001 203.45000000000005 72.97000000000001 L 204.00000000000006 74.09000000000002 L 208.95000000000005 84.15000000000002 C 214.12000000000003 84.15000000000002 219.29000000000005 84.20000000000002 224.45000000000005 84.23000000000002 C 227.19000000000005 80.77000000000002 229.95000000000005 77.32000000000002 232.73000000000005 73.90000000000002 L 234.12000000000003 72.19000000000003 L 235.47000000000003 73.86000000000003 L 244.22000000000003 84.64000000000003 L 255.59000000000003 84.84000000000003 C 260.6 81.85000000000004 266.41 79.04000000000003 271.43 76.18000000000004 C 272.04 75.81000000000003 273.5 75.08000000000004 274.16 74.77000000000004 C 275.07000000000005 74.31000000000004 275.99 73.85000000000004 277.23 73.95000000000005 Z M 272.66 66.12 C 274.24 68.69 275.77000000000004 71.29 277.23 73.95 C 275.15000000000003 71.75 273.13 69.5 271.16 67.22 C 268.98 64.69 266.8 62.14 264.65000000000003 59.55 L 145.62000000000003 57.559999999999995 L 261.48 55.62 C 259.18 52.709999999999994 256.98 49.739999999999995 254.95000000000002 46.66 L 133.16000000000003 44.83 L 255.94000000000003 42.989999999999995 L 256.79 42.989999999999995 C 262.79 50.129999999999995 267.77000000000004 58.19 272.66 66.11 Z M 20.590000000000032 79.42 C 32.95000000000003 118.30000000000001 83.68000000000004 125.02000000000001 106.61000000000003 91.56 C 84.56000000000003 128.75 29.860000000000028 121.46000000000001 16.860000000000028 80.55 C 8.790000000000028 54.239999999999995 23.46000000000003 26.159999999999997 49.730000000000025 17.939999999999998 C 61.43000000000002 14.319999999999997 74.51000000000002 15.119999999999997 85.58000000000003 20.43 C 95.28000000000003 25.12 103.34000000000003 32.93 108.12000000000003 42.57 C 102.72000000000003 33.56 94.49000000000004 26.22 84.78000000000003 22.22 C 47.49 6.99 9.46 40.51 20.59 79.43 Z" stroke-linecap="round" />
</g>
</g>
</g>
</svg>