<?xml version="1.0" encoding="UTF-8" standalone="no" ?>
<!DOCTYPE svg PUBLIC "-//W3C//DTD SVG 1.1//EN" "http://www.w3.org/Graphics/SVG/1.1/DTD/svg11.dtd">
<svg xmlns="http://www.w3.org/2000/svg" xmlns:xlink="http://www.w3.org/1999/xlink" version="1.1" width="1280" height="1024" viewBox="0 0 1280 1024" xml:space="preserve">
<desc>Created with Fabric.js 5.3.0</desc>
<defs>
</defs>
<g transform="matrix(1 0 0 1 640 512)" id="background-logo"  >
<rect style="stroke: none; stroke-width: 0; stroke-dasharray: none; stroke-linecap: butt; stroke-dashoffset: 0; stroke-linejoin: miter; stroke-miterlimit: 4; fill: rgb(255,255,255); fill-opacity: 0; fill-rule: nonzero; opacity: 1;"  paint-order="stroke"  x="-640" y="-512" rx="0" ry="0" width="1280" height="1024" />
</g>
<g transform="matrix(5.02 0 0 5.02 640 698.1059002169384)" id="shape-280fef6c-d89c-42b9-a17d-4b44c1d6a99c"  >
<g style=""  paint-order="stroke"   >
		<g transform="matrix(1 0 0 1 -55.59322 -15.585564999999995)" id="path-12"  >
<path style="stroke: none; stroke-width: 1; stroke-dasharray: none; stroke-linecap: butt; stroke-dashoffset: 0; stroke-linejoin: miter; stroke-miterlimit: 4; fill: rgb(255,241,184); fill-rule: nonzero; opacity: 1;"  paint-order="stroke"  transform=" translate(-69.40678, -29.060715)" d="M 61.46535 51.18626 C 61.00183 48.49642 58.4766 34.791219999999996 54.26805 29.124529999999996 C 49.44166 22.626369999999994 44.23326 19.391349999999996 39.638000000000005 16.537089999999996 C 35.467310000000005 13.947489999999995 31.530260000000006 11.502839999999996 28.495540000000005 7.067129999999995 L 27.566900000000004 5.709229999999995 L 29.1469 6.1657 C 44.87831 10.70669 99.92735 25.305390000000003 100.47883 25.45178 L 100.61855 25.48855 L 100.72545 25.58591 C 101.37934 26.18229 107.22019 31.62903 110.85346 39.32356 L 111.24665999999999 40.15647 L 110.32594999999999 40.16657 C 109.48617999999999 40.17595 108.65038999999999 40.18027 107.81656999999998 40.18027 C 105.32467999999999 40.18027 102.77582999999998 40.14277 100.52696999999998 40.11032 C 98.09402999999998 40.07426 95.79594999999998 40.04037 93.48326999999998 40.04037 C 90.42636999999998 40.04037 87.87696999999997 40.101670000000006 85.45972999999998 40.232200000000006 C 74.02574999999997 40.84805000000001 66.65933999999999 46.68565000000001 62.49314999999998 51.474000000000004 L 61.67663999999998 52.412200000000006 L 61.46534999999998 51.18627000000001 L 61.46534999999998 51.18626 z" stroke-linecap="round" />
</g>
		<g transform="matrix(1 0 0 1 -40.575755000000015 -11.282179999999997)" id="path-11"  >
<path style="stroke: none; stroke-width: 1; stroke-dasharray: none; stroke-linecap: butt; stroke-dashoffset: 0; stroke-linejoin: miter; stroke-miterlimit: 4; fill: rgb(216,194,163); fill-rule: nonzero; opacity: 1;"  paint-order="stroke"  transform=" translate(-84.42424499999998, -33.3641)" d="M 57.617 66.7282 C 56.23368 66.72748 54.92662 66.37917 53.73206 65.69192 C 53.69546 65.67101 50.0494 63.517689999999995 50.0393 58.493539999999996 C 50.0366 56.906319999999994 49.50224 55.412119999999994 48.53465 54.285709999999995 L 10.7141 10.31369 L 11.11307 9.92644 C 11.85828 9.20335 15.17692 5.897399999999999 16.847920000000002 2.8470199999999997 C 17.32476 1.97655 17.55404 0.99231 17.57463 0 L 17.57463 0 L 18.63884 1.22521 C 19.958879999999997 3.9417299999999997 25.44042 13.48597 40.551289999999995 22.24345 C 56.79182999999999 31.65572 57.503769999999996 53.08501 57.43939999999999 58.096909999999994 C 59.36032999999999 54.33113999999999 67.50466999999999 40.75501 85.43571999999999 39.78941999999999 C 87.86180999999999 39.65888999999999 90.42075999999999 39.598319999999994 93.48883999999998 39.598319999999994 C 95.80421999999999 39.598319999999994 98.10139999999998 39.63220999999999 100.53343999999998 39.66754999999999 C 102.91967999999999 39.70288999999999 105.38704999999999 39.73966999999999 107.86216999999999 39.73966999999999 C 120.59743999999999 39.73894999999999 135.72473 38.96805999999999 154.11856999999998 29.764189999999992 L 154.81950999999998 29.41371999999999 L 158.13438999999997 47.13996999999999 L 66.76227 63.39005 C 65.80821 63.55952 64.9378 63.90999 64.17501 64.43065 C 62.63918 65.47846 60.25455 66.72819 57.61736 66.72819 C 57.61736 66.7282 57.617 66.7282 57.617 66.7282 z" stroke-linecap="round" />
</g>
		<g transform="matrix(1 0 0 1 -57.921695 -15.30599500000001)" id="path-10"  >
<path style="stroke: none; stroke-width: 1; stroke-dasharray: none; stroke-linecap: butt; stroke-dashoffset: 0; stroke-linejoin: miter; stroke-miterlimit: 4; fill: rgb(237,217,192); fill-rule: nonzero; opacity: 1;"  paint-order="stroke"  transform=" translate(-67.078305, -29.340284999999987)" d="M 57.2237 58.68056 C 57.21162 52.76148 55.7489 31.56342 40.32921 22.6271 C 24.80205 13.62875 19.39948 3.91865 18.11351 1.15742 L 17.57464 0 L 103.38809 23.59414 L 103.49933 23.707359999999998 C 104.39697 24.6196 112.38157 32.800169999999994 116.3105 39.11156 L 116.58197 39.547909999999995 L 115.57526 39.59405999999999 C 114.06989 39.66400999999999 112.53459 39.71087999999999 110.88139 39.73684999999999 L 110.4889 39.72647999999999 L 110.3355 39.393579999999986 C 106.71521 31.538959999999985 100.93714 26.376289999999987 100.40043 25.889519999999983 C 98.40811 25.361649999999983 43.68935 10.845889999999983 28.634730000000005 6.4786899999999825 C 31.642590000000006 11.050699999999981 35.64219000000001 13.534289999999983 39.868410000000004 16.158509999999982 C 44.50099 19.035839999999983 49.747440000000005 22.294659999999983 54.623940000000005 28.86060999999998 C 59.13123 34.92825999999998 61.63062000000001 49.46316999999998 61.91149000000001 51.16504999999998 L 61.955310000000004 51.42970999999998 L 61.784400000000005 51.63667999999998 C 59.940810000000006 53.87364999999998 58.717580000000005 55.89858999999998 58.01610000000001 57.203849999999974 L 57.22371000000001 58.680569999999975 L 57.2237 58.680569999999975 z" stroke-linecap="round" />
</g>
		<g transform="matrix(1 0 0 1 72.04505000000002 2.585630000000002)" id="path-09"  >
<path style="stroke: none; stroke-width: 1; stroke-dasharray: none; stroke-linecap: butt; stroke-dashoffset: 0; stroke-linejoin: miter; stroke-miterlimit: 4; fill: rgb(193,166,133); fill-rule: nonzero; opacity: 1;"  paint-order="stroke"  transform=" translate(-197.04505, -47.23191)" d="M 172.64439 48.08465 L 168.62695 48.84617 L 168.40448 48.582950000000004 C 167.17259 47.12409 165.38057 46.28830000000001 163.48795 46.28830000000001 C 163.11152 46.28830000000001 162.73166 46.321470000000005 162.35938000000002 46.387820000000005 L 157.69796000000002 47.217130000000004 L 154.81954000000002 29.413710000000005 L 237.86939 57.023860000000006 L 239.27056000000002 65.05011 L 172.64439 48.08465 L 172.64439 48.08465 z" stroke-linecap="round" />
</g>
		<g transform="matrix(1 0 0 1 -37.81820999999999 -5.857074999999995)" id="path-08"  >
<path style="stroke: none; stroke-width: 1; stroke-dasharray: none; stroke-linecap: butt; stroke-dashoffset: 0; stroke-linejoin: miter; stroke-miterlimit: 4; fill: rgb(214,103,103); fill-rule: nonzero; opacity: 1;"  paint-order="stroke"  transform=" translate(-87.18179, -38.789205)" d="M 58.4162 69.49952 C 55.567710000000005 69.49952 53.161460000000005 68.85987 51.26433 67.5986 C 48.29613 65.62557000000001 46.62111 62.177820000000004 46.28524 57.349810000000005 L 5.16947 8.07889 L 7.59988 8.31903 C 8.996179999999999 8.45532 10.26952 9.117329999999999 11.18483 10.18245 L 48.870529999999995 53.997249999999994 C 49.9068 55.20226999999999 50.47919999999999 56.798869999999994 50.48244999999999 58.49208999999999 C 50.492189999999994 63.24797999999999 53.81229999999999 65.22679 53.95362999999999 65.30827 C 55.06111999999999 65.94574999999999 56.28110999999999 66.26953999999999 57.57823999999999 66.26953999999999 C 60.28826999999999 66.26953999999999 62.718499999999985 64.88784 63.926039999999986 64.06429999999999 C 64.74074999999999 63.50757999999999 65.66938999999999 63.13402999999999 66.68528999999998 62.95302999999999 L 162.28112 45.95151999999999 C 162.67738999999997 45.88156999999999 163.08121 45.84622999999999 163.48182 45.84622999999999 C 165.33225 45.84622999999999 167.13653 46.61279999999999 168.43169 47.95049999999999 L 169.19411 48.73797999999999 L 64.89165 68.50435 C 64.43733999999999 68.65218 61.68638 69.49952 58.41657 69.49952 C 58.41657 69.49952 58.41621 69.49952 58.4162 69.49952 z" stroke-linecap="round" />
</g>
		<g transform="matrix(1 0 0 1 27.618319999999983 25.975694999999995)" id="path-07"  >
<path style="stroke: none; stroke-width: 1; stroke-dasharray: none; stroke-linecap: butt; stroke-dashoffset: 0; stroke-linejoin: miter; stroke-miterlimit: 4; fill: rgb(137,34,34); fill-rule: nonzero; opacity: 1;"  paint-order="stroke"  transform=" translate(-152.61831999999998, -70.62197499999999)" d="M 155.9903 89.29256 C 148.86583 89.29256 80.20461999999999 79.05963 59.33042999999999 75.92340999999999 L 55.23664999999999 75.28893 L 59.335289999999986 74.75443999999999 C 62.47349999999999 74.31022999999999 64.59074999999999 73.15062999999999 64.98340999999999 72.92275999999998 L 65.06922999999999 72.87227999999999 L 172.22037999999998 51.95138999999999 L 247.88092999999998 69.77571999999999 L 249.99998999999997 70.72977999999999 L 247.82394999999997 70.93602999999999 L 165.27221999999995 82.00186 C 165.10976999999994 83.10159999999999 163.84507999999994 89.29256 155.99027999999996 89.29256 L 155.9903 89.29256 z" stroke-linecap="round" />
</g>
		<g transform="matrix(1 0 0 1 85.99643 14.555055)" id="path-06"  >
<polygon style="stroke: none; stroke-width: 1; stroke-dasharray: none; stroke-linecap: butt; stroke-dashoffset: 0; stroke-linejoin: miter; stroke-miterlimit: 4; fill: rgb(153,49,49); fill-rule: nonzero; opacity: 1;"  paint-order="stroke"  points="-39.003569999999996,-6.847555 -38.56044,-11.528444999999998 39.003569999999996,8.123964999999998 39.003569999999996,11.528445000000005 " />
</g>
		<g transform="matrix(1 0 0 1 -38.782 -3.299910000000004)" id="path-05"  >
<path style="stroke: none; stroke-width: 1; stroke-dasharray: none; stroke-linecap: butt; stroke-dashoffset: 0; stroke-linejoin: miter; stroke-miterlimit: 4; fill: rgb(178,66,66); fill-rule: nonzero; opacity: 1;"  paint-order="stroke"  transform=" translate(-86.218, -41.34636999999999)" d="M 56.92616 75.37173 C 54.843520000000005 75.37173 52.78197 74.99674 50.798480000000005 74.25685 C 41.870990000000006 70.92737 41.237300000000005 61.13217 41.19727 60.16729 L 0 7.32098 L 5.11357 7.32098 L 46.716660000000005 57.17532 L 46.730180000000004 57.36498 C 47.06407 62.026410000000006 48.672920000000005 65.3458 51.512220000000006 67.23157 C 53.35616 68.45606000000001 55.68670000000001 69.07695000000001 58.439280000000004 69.07695000000001 C 61.883790000000005 69.07695000000001 64.70487 68.09693000000001 64.73245 68.08683 L 64.77644 68.07098 L 172.436 47.6729 L 172.436 52.36029 L 65.24339 73.28912 L 65.21238000000001 73.30138 C 64.78042 73.55377999999999 61.50141000000001 75.37176 56.92706000000001 75.37176 L 56.92616000000001 75.37176 L 56.92616 75.37173 z" stroke-linecap="round" />
</g>
		<g transform="matrix(1 0 0 1 -73.10169194113502 -14.716011884023608)" id="path-04"  >
<path style="stroke: none; stroke-width: 1; stroke-dasharray: none; stroke-linecap: butt; stroke-dashoffset: 0; stroke-linejoin: miter; stroke-miterlimit: 4; fill: rgb(216,194,163); fill-rule: nonzero; opacity: 1;"  paint-order="stroke"  transform=" translate(-51.898308058864984, -29.93026811597639)" d="M 39.11345 12.16726 C 39.25425 12.682490000000001 39.61772 12.87461 40.12923 12.938400000000001 C 40.45057 12.978480000000001 42.41603 12.838860000000002 42.11631 13.505920000000001 C 41.98755 13.79249 42.214279999999995 14.09847 42.4917 13.847360000000002 C 42.82354 13.546990000000001 43.03797 14.734480000000001 43.1051 14.892360000000002 C 43.25026 15.233700000000002 43.41509 15.328180000000001 43.7605 15.454270000000001 C 44.0333 15.55385 44.36029 15.521790000000001 44.60073 15.747000000000002 C 44.73909 15.876590000000002 44.81812 16.10459 44.922579999999996 16.263050000000003 C 45.1806 16.654460000000004 45.48739 16.855950000000004 45.905989999999996 17.063690000000005 C 46.784769999999995 17.499810000000004 52.43982999999999 19.503280000000004 51.06475999999999 21.163590000000006 C 50.931059999999995 21.325020000000006 50.72102999999999 22.054160000000007 51.170019999999994 21.915300000000006 C 51.84349999999999 21.707010000000004 52.51476999999999 21.814990000000005 52.99898999999999 22.355090000000004 C 53.39760999999999 22.799710000000005 53.27022999999999 23.247280000000003 53.45017999999999 23.746350000000003 C 53.57489999999999 24.092250000000003 53.76243999999999 24.230090000000004 54.10756999999999 24.331120000000002 C 54.30571999999999 24.389120000000002 54.64141999999999 24.318830000000002 54.812409999999986 24.424850000000003 C 55.08775999999999 24.59558 55.01341999999998 25.097440000000002 55.07929999999998 25.352190000000004 C 55.321989999999985 26.290590000000005 56.17299999999998 25.988750000000003 56.864899999999984 26.360360000000004 C 57.74951999999998 26.835480000000004 57.20411999999998 28.226850000000002 57.55451999999998 29.030120000000004 C 57.72418999999998 29.419070000000005 58.003019999999985 29.621730000000003 58.37771999999998 29.813910000000003 C 59.07393999999998 30.170990000000003 59.39814999999998 30.341460000000005 59.34644999999998 31.201920000000005 C 59.31917999999998 31.655830000000005 59.175209999999986 32.03313000000001 59.373209999999986 32.477590000000006 C 59.70585999999999 33.22430000000001 60.389349999999986 33.121520000000004 60.200879999999984 34.13906000000001 C 60.07562999999998 34.815270000000005 59.72287999999998 35.68672000000001 60.58589999999998 36.03815000000001 C 61.35364999999998 36.35078000000001 62.273049999999984 35.695150000000005 62.94867999999998 36.29906000000001 L 62.93877999999998 35.710470000000015 C 62.29979999999998 36.860230000000016 61.49139999999998 39.011110000000016 63.24477999999998 39.65387000000001 L 63.504019999999976 38.75237000000001 C 62.995509999999975 39.08928000000002 62.70903999999997 39.59377000000001 62.750439999999976 40.21785000000001 C 62.77123999999998 40.531500000000015 62.88301999999997 40.837220000000016 63.04579999999998 41.103710000000014 C 63.28379999999998 41.49332000000001 63.88645999999998 41.93583000000002 63.93379999999998 42.41495000000001 C 63.98824999999998 42.96597000000001 63.523359999999975 43.591110000000015 63.339279999999974 44.09766000000001 C 63.156169999999975 44.601540000000014 63.041539999999976 45.126790000000014 62.99534999999997 45.66063000000001 C 62.918239999999976 46.551910000000014 63.02558999999997 47.43330000000001 63.43348999999997 48.23266000000001 C 63.62223999999997 48.60256000000001 64.10108999999997 47.84947000000001 64.04006999999997 47.60881000000001 C 63.81101999999997 46.70571000000001 63.62593999999997 45.824410000000015 63.79082999999997 44.890830000000015 C 63.92449999999997 44.13401000000002 64.35766999999997 43.54928000000002 64.58516999999998 42.837010000000014 C 64.73564999999998 42.365850000000016 64.73557999999997 41.931970000000014 64.52692999999998 41.476610000000015 C 64.42549999999999 41.255220000000016 63.185049999999976 39.849860000000014 63.51882999999998 39.631720000000016 C 63.68896999999998 39.520530000000015 64.15434999999998 38.87197000000002 63.77806999999998 38.73022000000002 C 62.52502999999998 38.25819000000002 62.99594999999998 36.91795000000002 63.463389999999976 36.013340000000014 C 63.55618999999997 35.833770000000015 63.638799999999975 35.574500000000015 63.453489999999974 35.42475000000002 C 63.123689999999975 35.158220000000014 62.75064999999997 35.12174000000002 62.338249999999974 35.139330000000015 C 61.940529999999974 35.15629000000001 61.27439999999997 35.37374000000001 60.93897999999997 35.10348000000001 C 60.47803999999997 34.732070000000014 60.98161999999997 33.953730000000014 61.016599999999976 33.48797000000001 C 61.05698999999998 32.95016000000001 60.86731999999998 32.66271000000001 60.50230999999997 32.28082000000001 C 59.93603999999997 31.688360000000014 60.14294999999997 31.181960000000014 60.161679999999976 30.436040000000013 C 60.17234999999997 30.01105000000001 60.07109999999997 29.664620000000014 59.759049999999974 29.372660000000014 C 59.38207999999997 29.019950000000016 58.78420999999997 28.950400000000013 58.45654999999997 28.536080000000013 C 58.100539999999974 28.085920000000012 58.20550999999997 27.478740000000013 58.17567999999997 26.946060000000013 C 58.12617999999997 26.062140000000014 57.84067999999997 25.478920000000013 56.92927999999997 25.271710000000013 C 56.30585999999997 25.129970000000014 55.99088999999997 25.23506000000001 55.83214999999997 24.482980000000012 C 55.75032999999997 24.095310000000012 55.83429999999997 23.79102000000001 55.41204999999997 23.58953000000001 C 54.738819999999976 23.26828000000001 54.33187999999997 23.79657000000001 54.069919999999975 22.81391000000001 C 53.973549999999975 22.45243000000001 53.933119999999974 22.14628000000001 53.708779999999976 21.83338000000001 C 53.18409999999997 21.10160000000001 52.21044999999997 20.72097000000001 51.349629999999976 20.96243000000001 L 51.45488999999998 21.714140000000008 C 53.66152999999998 19.155870000000007 49.185319999999976 17.64370000000001 47.567969999999974 16.89664000000001 C 46.757199999999976 16.522150000000007 45.919799999999974 16.25105000000001 45.40284999999997 15.494680000000008 C 45.05924999999997 14.991950000000008 44.919939999999976 14.917220000000007 44.38772999999997 14.676140000000007 C 44.03133999999997 14.718820000000008 43.78443999999997 14.540550000000007 43.647009999999966 14.141340000000007 C 43.61630999999996 13.981870000000006 43.58234999999996 13.823090000000006 43.545129999999965 13.665000000000006 C 43.47448999999997 13.485920000000005 43.393449999999966 13.331350000000006 43.24440999999997 13.203990000000006 C 42.91704999999997 12.924240000000006 42.62117999999997 12.957310000000007 42.31418999999997 13.217900000000006 L 42.63786999999997 13.668270000000005 C 42.92184999999997 13.082710000000006 42.84255999999997 12.574580000000005 42.22760999999997 12.244290000000005 C 41.56173999999997 11.886650000000005 40.03218999999997 12.465360000000004 39.69798999999997 11.664950000000005 C 39.52460999999997 11.249710000000004 39.03500999999997 11.880220000000005 39.11343999999997 12.167270000000004 L 39.11343999999997 12.167270000000004 L 39.11345 12.16726 z" stroke-linecap="round" />
</g>
		<g transform="matrix(1 0 0 1 -65.04029688912517 -15.372758026749157)" id="path-04"  >
<path style="stroke: none; stroke-width: 1; stroke-dasharray: none; stroke-linecap: butt; stroke-dashoffset: 0; stroke-linejoin: miter; stroke-miterlimit: 4; fill: rgb(216,194,163); fill-rule: nonzero; opacity: 1;"  paint-order="stroke"  transform=" translate(-59.95970311087483, -29.27352197325084)" d="M 51.71992 15.84277 C 51.96392 16.45473 52.31259 16.93996 52.34369 17.626079999999998 C 52.34944 17.752999999999997 52.40712 17.921879999999998 52.56311 17.92561 C 53.28472 17.94287 53.98199 18.49393 53.78176 19.290789999999998 C 53.72707 19.508439999999997 53.835719999999995 19.776649999999997 54.09762 19.719309999999997 C 54.64931 19.598509999999997 55.19502 19.490029999999997 55.75226 19.650019999999998 C 56.24905 19.79265 56.92361 20.283669999999997 56.62895 20.908759999999997 C 56.53945 21.098639999999996 56.55066 21.404519999999998 56.79256 21.458249999999996 C 57.73697 21.668019999999995 58.12838 21.874829999999996 58.03709 22.915069999999996 C 57.991929999999996 23.429739999999995 58.03627 23.859259999999995 58.256589999999996 24.339669999999998 C 58.70466999999999 25.316709999999997 59.399359999999994 25.65073 60.369049999999994 25.91902 C 61.59795999999999 26.25903 62.57608999999999 28.07501 62.96818999999999 29.23294 C 63.04048999999999 29.44645 63.04281999999999 29.75702 63.19324999999999 29.92895 C 63.313509999999994 30.06638 63.67003999999999 30.127390000000002 63.83370999999999 30.25112 C 64.40952999999999 30.68638 64.66659999999999 31.40816 64.48746999999999 32.10507 C 64.46173999999999 32.2052 64.4703 32.41345 64.59140999999998 32.46077 C 65.25975999999999 32.721869999999996 65.84689999999998 33.62096 65.27663999999999 34.277159999999995 C 65.18014999999998 34.3882 64.94888999999999 34.876999999999995 65.21035999999998 34.97355999999999 C 65.97902999999998 35.25741999999999 66.68556999999998 35.553729999999995 66.60059999999999 36.51492999999999 C 66.54055999999999 37.19413999999999 66.34903999999999 37.71177999999999 66.44182999999998 38.431799999999996 C 66.64227999999999 39.987159999999996 66.99104999999999 41.53926 67.54318999999998 43.007749999999994 C 67.71838999999999 43.47373999999999 68.29326999999998 42.77036 68.19979999999998 42.443509999999996 C 67.65732999999999 40.54658 66.82662999999998 38.399919999999995 67.24385999999998 36.42979 C 67.50989999999999 35.17355 66.86821999999998 34.551849999999995 65.71298999999999 34.102999999999994 L 65.64670999999998 34.79939999999999 C 66.50167999999998 33.82705999999999 66.43038999999999 32.09595999999999 65.10842999999998 31.56527999999999 L 65.21235999999999 31.92096999999999 C 65.50323999999999 30.81669999999999 65.05910999999999 29.87207999999999 64.17437 29.21077999999999 C 63.632819999999995 28.80598999999999 63.515919999999994 28.00833999999999 63.18277 27.40167999999999 C 62.814499999999995 26.73104999999999 62.35867 25.92088999999999 61.79862 25.393089999999987 C 61.25152 24.877499999999987 60.60756 25.051289999999987 59.96798 24.756929999999986 C 59.101879999999994 24.358319999999985 58.72034 23.488449999999986 58.843039999999995 22.576239999999988 C 59.020849999999996 21.25431999999999 58.476929999999996 20.702359999999988 57.18073999999999 20.425939999999986 L 57.34434999999999 20.975429999999985 C 57.654439999999994 20.304299999999984 57.53548999999999 19.554879999999986 56.972939999999994 19.048119999999987 C 56.247479999999996 18.394599999999986 55.189569999999996 18.559299999999986 54.299029999999995 18.650689999999987 L 54.614889999999995 19.079209999999986 C 54.81934999999999 18.265499999999985 54.501799999999996 17.368829999999985 53.712489999999995 16.987829999999985 C 53.70927999999999 16.986279999999983 53.18214 16.833879999999986 53.19307 16.843689999999985 C 53.048519999999996 16.713919999999984 53.03559 16.436269999999986 52.95131 16.254899999999985 C 52.74445 15.809739999999985 52.50585 15.524559999999985 52.0313 15.389439999999984 C 51.850210000000004 15.337869999999985 51.66258 15.698989999999984 51.71991 15.842789999999985 L 51.71991 15.842789999999985 L 51.71992 15.84277 z" stroke-linecap="round" />
</g>
		<g transform="matrix(1 0 0 1 -63.580746677458656 -24.95788598118719)" id="path-04"  >
<path style="stroke: none; stroke-width: 1; stroke-dasharray: none; stroke-linecap: butt; stroke-dashoffset: 0; stroke-linejoin: miter; stroke-miterlimit: 4; fill: rgb(216,194,163); fill-rule: nonzero; opacity: 1;"  paint-order="stroke"  transform=" translate(-61.419253322541344, -19.688394018812808)" d="M 59.92229 18.18514 C 60.055319999999995 18.20175 60.194799999999994 18.266930000000002 60.31775 18.31923 C 60.456039999999994 18.37805 60.58002 18.46571 60.6767 18.58078 C 60.76884 18.690440000000002 60.839659999999995 18.81064 60.877399999999994 18.949080000000002 C 60.89735999999999 19.02231 60.904019999999996 19.06556 60.8991 19.144820000000003 C 60.89499 19.21101 60.92028 19.078120000000002 60.889979999999994 19.193050000000003 C 60.90953999999999 19.118870000000005 60.87029999999999 19.239040000000003 60.86500999999999 19.251400000000004 C 60.81483999999999 19.368550000000003 60.77897999999999 19.739020000000004 61.005129999999994 19.721990000000005 C 61.45313999999999 19.688270000000006 61.90116 19.865240000000004 62.16723999999999 20.236680000000007 C 62.41508999999999 20.582700000000006 62.42683999999999 21.039700000000007 62.23790999999999 21.338060000000006 C 62.150169999999996 21.476610000000004 62.065369999999994 21.784690000000005 62.24718999999999 21.889670000000006 C 62.43709999999999 21.999310000000005 62.64457999999999 21.756060000000005 62.72952999999999 21.621900000000007 C 63.099459999999986 21.037720000000007 63.17199999999999 20.273590000000006 62.84090999999999 19.656880000000008 C 62.55585999999999 19.125920000000008 61.93385999999999 18.79903000000001 61.337589999999985 18.83789000000001 L 61.477699999999984 19.30848000000001 C 61.67942999999998 18.84623000000001 61.614299999999986 18.29524000000001 61.29148999999998 17.90355000000001 C 61.15110999999998 17.73321000000001 60.96874999999998 17.58510000000001 60.76047999999998 17.507950000000008 C 60.50114999999998 17.411880000000007 60.28089999999998 17.470070000000007 60.03658999999998 17.583070000000006 C 59.88474999999998 17.653310000000005 59.624659999999984 18.147960000000005 59.922319999999985 18.185140000000008 L 59.922319999999985 18.185140000000008 L 59.92229 18.18514 z" stroke-linecap="round" />
</g>
		<g transform="matrix(1 0 0 1 -57.79795324739604 -13.17430982576877)" id="path-04"  >
<path style="stroke: none; stroke-width: 1; stroke-dasharray: none; stroke-linecap: butt; stroke-dashoffset: 0; stroke-linejoin: miter; stroke-miterlimit: 4; fill: rgb(216,194,163); fill-rule: nonzero; opacity: 1;"  paint-order="stroke"  transform=" translate(-67.20204675260396, -31.471970174231227)" d="M 62.67886 21.94208 C 62.95823 22.47372 62.35497 23.059620000000002 62.83851 23.595850000000002 C 63.06436 23.846320000000002 63.43236 23.900640000000003 63.72696 24.026310000000002 C 64.1247 24.195970000000003 64.48011 24.44365 64.76126 24.77492 C 65.36504 25.48637 65.19050999999999 26.34297 65.58775999999999 27.10572 C 65.8624 27.63304 66.42653999999999 27.90212 66.90809999999999 28.203020000000002 C 67.13950999999999 28.347610000000003 67.48704 28.520500000000002 67.59512999999998 28.78414 C 67.75202999999998 29.16681 67.40386999999998 29.63903 67.41232999999998 30.03575 C 67.42887999999998 30.81184 68.28598999999998 31.08269 68.80845999999998 31.48507 C 69.35647999999998 31.90713 69.75449999999998 32.368520000000004 69.50181999999998 33.08479 C 69.41780999999997 33.32295 69.22017999999998 33.51933 69.23155999999999 33.79761 C 69.25204 34.29902 70.01168999999999 34.45015 70.02090999999999 34.77312 L 70.28665999999998 34.2178 C 70.10813999999998 34.386559999999996 69.92919999999998 34.554869999999994 69.74982999999999 34.722739999999995 C 69.606 34.85769 69.36608999999999 35.23132 69.54173999999999 35.435159999999996 C 69.84392 35.785869999999996 70.73728999999999 36.51687999999999 70.84316999999999 36.955749999999995 C 70.93254999999999 37.32619999999999 70.55118999999999 37.646209999999996 70.49640999999998 38.02083 C 70.42408999999998 38.51533 70.70708999999998 38.932089999999995 70.84520999999998 39.38749 C 71.07642999999997 40.14982 70.91732999999998 40.81265 71.00849999999998 41.56792 C 71.04316999999999 41.85514 71.32886999999998 41.70908 71.42360999999998 41.53438 C 71.74161999999998 40.947919999999996 71.79703999999998 40.31103 71.74189999999999 39.64789 C 71.68327999999998 38.94267 71.15676999999998 38.198989999999995 71.41071999999998 37.53442 C 71.55815999999999 37.14859 71.77636999999999 36.87677 71.62374999999999 36.439769999999996 C 71.39887999999999 35.79588999999999 70.59749999999998 35.191309999999994 70.15062999999999 34.69369 L 69.94254 35.40611 C 70.34848 35.04399 71.0406 34.55948 70.64398999999999 33.93528 C 70.52508999999999 33.748149999999995 70.07673999999999 33.6226 70.04363 33.42317 C 70.02315999999999 33.29991 70.36166999999999 32.79511 70.38801 32.60024 C 70.49587 31.80236 70.05238 31.140819999999998 69.44812999999999 30.670859999999998 C 68.84174999999999 30.199239999999996 68.19381999999999 30.04096 68.30243999999999 29.156069999999996 C 68.33913999999999 28.857069999999997 68.43202999999998 28.630629999999996 68.35036999999998 28.325669999999995 C 68.18632999999998 27.713119999999996 67.55793999999999 27.434379999999994 67.06338999999998 27.130889999999994 C 66.67260999999998 26.891079999999995 66.30566999999998 26.659929999999992 66.15048999999999 26.202559999999995 C 66.00156999999999 25.763679999999994 66.03272999999999 25.301689999999994 65.84657999999999 24.864819999999995 C 65.53049999999999 24.123019999999993 64.93557999999999 23.531149999999993 64.18491999999999 23.233129999999996 C 64.02471999999999 23.169529999999995 63.800929999999994 23.147729999999996 63.660529999999994 23.055359999999997 C 63.31184 22.825949999999995 63.345909999999996 22.512849999999997 63.33519999999999 22.127179999999996 C 63.32578999999999 21.787999999999997 63.380689999999994 21.608639999999994 63.208479999999994 21.297149999999995 C 63.032239999999994 20.978359999999995 62.526109999999996 21.651389999999996 62.678869999999996 21.942079999999994 L 62.678869999999996 21.942079999999994 L 62.67886 21.94208 z" stroke-linecap="round" />
</g>
		<g transform="matrix(1 0 0 1 -56.42365747197188 -22.79411508475788)" id="path-04"  >
<path style="stroke: none; stroke-width: 1; stroke-dasharray: none; stroke-linecap: butt; stroke-dashoffset: 0; stroke-linejoin: miter; stroke-miterlimit: 4; fill: rgb(216,194,163); fill-rule: nonzero; opacity: 1;"  paint-order="stroke"  transform=" translate(-68.57634252802812, -21.852164915242117)" d="M 66.82697 20.08073 C 66.86240000000001 20.12876 66.86319 20.19744 66.88986 20.24989 C 66.91562 20.300530000000002 66.95212 20.34017 66.99076 20.38257 C 67.05731999999999 20.455630000000003 67.12916999999999 20.52469 67.20236 20.5911 C 67.3499 20.72496 67.50262 20.85147 67.64506 20.99114 C 67.93414 21.27458 68.20169 21.580000000000002 68.4451 21.90349 C 68.92385999999999 22.53979 69.32652 23.238380000000003 69.60701 23.98422 C 69.63886000000001 24.068920000000002 69.69483 24.14804 69.79488 24.155170000000002 L 69.8379 24.158240000000003 C 70.04892000000001 24.173280000000002 70.24564000000001 23.930200000000003 70.30201000000001 23.75212 C 70.35757000000001 23.576590000000003 70.38451 23.429550000000003 70.31907000000001 23.25403 C 70.28189 23.15428 70.24267 23.05531 70.20146000000001 22.95715 C 70.11096 22.741629999999997 70.01214000000002 22.529049999999998 69.90545000000002 22.32105 C 69.70117000000002 21.92277 69.46311000000001 21.54773 69.18771000000001 21.19488 C 68.92016000000001 20.8521 68.62425 20.53265 68.30542000000001 20.237080000000002 C 68.13768000000002 20.081570000000003 67.96651000000001 19.92752 67.78475000000002 19.78836 C 67.70109000000002 19.724320000000002 67.61245000000001 19.66638 67.51748000000002 19.620240000000003 C 67.46511000000002 19.594800000000003 67.38957000000002 19.555830000000004 67.33170000000003 19.547860000000004 C 67.26371000000003 19.538490000000003 67.20341000000002 19.570390000000003 67.13293000000003 19.550790000000003 C 66.92264 19.4923 66.71431 19.92798 66.82697 20.08073 L 66.82697 20.08073 L 66.82697 20.08073 z" stroke-linecap="round" />
</g>
		<g transform="matrix(1 0 0 1 -52.226613680268585 -14.962449957856247)" id="path-04"  >
<path style="stroke: none; stroke-width: 1; stroke-dasharray: none; stroke-linecap: butt; stroke-dashoffset: 0; stroke-linejoin: miter; stroke-miterlimit: 4; fill: rgb(216,194,163); fill-rule: nonzero; opacity: 1;"  paint-order="stroke"  transform=" translate(-72.77338631973142, -29.68383004214375)" d="M 71.00782 25.68149 C 70.80073999999999 26.17593 70.7546 26.94276 71.14965 27.35723 C 71.36014999999999 27.57808 71.67303 27.65626 71.82973 27.93102 C 71.95918 28.15801 71.98742 28.4222 71.83985 28.642500000000002 C 71.75947 28.762510000000002 71.62998 29.26332 71.92856 29.25619 C 72.37457 29.245540000000002 72.84706 29.6536 72.83319 30.12376 C 72.81960000000001 30.584210000000002 72.56806 30.94732 73.00866 31.304840000000002 C 73.35900000000001 31.58913 73.6691 31.797130000000003 73.83369 32.243010000000005 C 73.98762 32.65999000000001 73.96363000000001 33.06864 73.79392 33.474630000000005 C 73.73042 33.626520000000006 73.7163 33.87102 73.89786 33.94024 C 74.08458999999999 34.011430000000004 74.2787 33.78463 74.3596 33.650710000000004 C 74.9329 32.701620000000005 74.76822 31.365080000000003 73.89347 30.649920000000005 C 73.79853 30.572300000000006 73.65047 30.515530000000005 73.56953999999999 30.426430000000003 C 73.44143999999999 30.285380000000004 73.51704999999998 30.2005 73.55085999999999 30.026010000000003 C 73.60377999999999 29.752950000000002 73.59055999999998 29.469280000000005 73.48970999999999 29.208550000000002 C 73.28844999999998 28.688280000000002 72.81956999999998 28.380340000000004 72.27609999999999 28.3319 L 72.28828999999999 29.05648 C 72.71061999999999 28.51666 72.84863999999999 27.75891 72.46754999999999 27.15427 C 72.26921999999999 26.83961 71.99472999999999 26.77615 71.69250999999998 26.60701 C 71.28737999999998 26.38027 71.45810999999999 25.945719999999998 71.43770999999998 25.57323 C 71.41884999999998 25.228949999999998 71.07253999999998 25.526889999999998 71.00778999999999 25.68148 L 71.00778999999999 25.68148 L 71.00782 25.68149 z" stroke-linecap="round" />
</g>
		<g transform="matrix(1 0 0 1 -49.32526507352004 -6.644378578603753)" id="path-04"  >
<path style="stroke: none; stroke-width: 1; stroke-dasharray: none; stroke-linecap: butt; stroke-dashoffset: 0; stroke-linejoin: miter; stroke-miterlimit: 4; fill: rgb(216,194,163); fill-rule: nonzero; opacity: 1;"  paint-order="stroke"  transform=" translate(-75.67473492647996, -38.00190142139624)" d="M 75.15432 36.11882 C 75.18176 36.84018 75.30868 37.56065 75.36213 38.28137 C 75.38811999999999 38.63177 75.40545999999999 38.982780000000005 75.41411 39.334030000000006 C 75.41843999999999 39.509750000000004 75.41787 39.685410000000005 75.42062999999999 39.86113 C 75.42369999999998 40.056920000000005 75.46209999999999 40.18298 75.55662 40.35371 C 75.69636 40.60612 76.01566 40.19332 76.05923999999999 40.07469 C 75.85168999999999 40.34603 75.81617999999999 40.407529999999994 75.95271999999999 40.259209999999996 C 75.99814999999998 40.20343 76.03365999999998 40.14192 76.05923999999999 40.07469 C 76.09944999999999 39.980039999999995 76.13580999999999 39.87692 76.16049999999998 39.777049999999996 C 76.21366999999998 39.562009999999994 76.19202999999999 39.330709999999996 76.18580999999999 39.1106 C 76.17518999999999 38.73479 76.15463999999999 38.359269999999995 76.124 37.98455 C 76.09284 37.60357 76.05659999999999 37.22124 75.9975 36.843469999999996 C 75.93783 36.462019999999995 75.88093 36.062949999999994 75.75023 35.699099999999994 C 75.69233 35.53791 75.53851 35.54274999999999 75.41371000000001 35.63005 C 75.26554 35.7337 75.14729 35.93403 75.15432 36.11882 C 75.15431 36.11882 75.15431 36.11882 75.15432 36.11882 z" stroke-linecap="round" />
</g>
		<g transform="matrix(1 0 0 1 -49.94684606786876 -18.697714333056343)" id="path-04"  >
<path style="stroke: none; stroke-width: 1; stroke-dasharray: none; stroke-linecap: butt; stroke-dashoffset: 0; stroke-linejoin: miter; stroke-miterlimit: 4; fill: rgb(216,194,163); fill-rule: nonzero; opacity: 1;"  paint-order="stroke"  transform=" translate(-75.05315393213124, -25.948565666943654)" d="M 72.57651 21.50743 C 72.89162 21.8447 73.27177999999999 22.06956 73.48194 22.50237 C 73.59102 22.727 73.65491 22.977059999999998 73.66581 23.22627 C 73.67520999999999 23.441309999999998 73.63104 23.667849999999998 73.70093999999999 23.87762 C 73.84685999999999 24.31556 74.33742999999998 24.269660000000002 74.60895 24.5809 C 75.00362999999999 25.03331 74.61836 25.42403 74.68270999999999 25.9241 C 74.73082999999998 26.29798 74.99515999999998 26.500059999999998 75.29931999999998 26.68138 C 75.66021999999998 26.89651 75.90588999999999 27.05167 76.03372999999998 27.4699 C 76.21148999999998 28.051489999999998 76.18188999999998 28.91132 76.87436999999997 29.14742 L 77.11742999999997 28.30218 C 76.72126999999998 28.55607 76.48194999999997 28.97375 76.48811999999997 29.45182 C 76.49536999999997 30.01406 76.89108999999996 30.450760000000002 76.97055999999996 30.995510000000003 C 77.03129999999996 31.411860000000004 77.52647999999996 30.830980000000004 77.55806999999996 30.669360000000005 C 77.62342999999996 30.334960000000006 77.59164999999996 30.085020000000004 77.45440999999995 29.769520000000004 C 77.39350999999995 29.629510000000003 77.31307999999996 29.495990000000003 77.26659999999995 29.350400000000004 C 77.21632999999996 29.192900000000005 77.28479999999995 29.028900000000004 77.13130999999996 29.126640000000005 C 77.28775999999996 29.027010000000004 77.72910999999996 28.403960000000005 77.37436999999996 28.281400000000005 C 76.74313999999995 28.063320000000004 76.85629999999996 27.062770000000004 76.61002999999995 26.545040000000004 C 76.44696999999995 26.202210000000004 76.17590999999996 26.020650000000003 75.85639999999995 25.833360000000003 C 75.71890999999995 25.75277 75.46087999999995 25.644460000000002 75.41673999999995 25.471120000000003 C 75.36867999999994 25.282400000000003 75.55603999999995 24.942760000000003 75.56209999999994 24.733610000000002 C 75.57358999999994 24.33734 75.43000999999994 23.944070000000004 75.14351999999994 23.666670000000003 C 74.98768999999994 23.515790000000003 74.81242999999994 23.475810000000003 74.63859999999994 23.365590000000005 C 74.38378999999993 23.204030000000003 74.45655999999994 23.005800000000004 74.44110999999994 22.725800000000003 C 74.39820999999993 21.94825 73.87221999999994 20.869480000000003 73.01044999999993 20.755850000000002 C 72.73318999999994 20.71929 72.36965999999994 21.28599 72.57653999999994 21.507410000000004 L 72.57653999999994 21.507410000000004 L 72.57651 21.50743 z" stroke-linecap="round" />
</g>
		<g transform="matrix(1 0 0 1 -46.23516980876023 -8.499259912173581)" id="path-04"  >
<path style="stroke: none; stroke-width: 1; stroke-dasharray: none; stroke-linecap: butt; stroke-dashoffset: 0; stroke-linejoin: miter; stroke-miterlimit: 4; fill: rgb(216,194,163); fill-rule: nonzero; opacity: 1;"  paint-order="stroke"  transform=" translate(-78.76483019123977, -36.14702008782642)" d="M 77.7634 33.34612 C 78.05711000000001 34.252449999999996 78.32113000000001 35.1873 78.71776 36.05386 C 78.99497 36.65954 79.26515 37.58316 78.85485 38.17961 C 78.78115 38.28673 78.68887 38.57846 78.8057 38.694919999999996 C 78.93577 38.824569999999994 79.04098 38.97197 79.07346 39.15689 C 79.10334 39.327009999999994 79.05114 39.468509999999995 79.14927 39.62309 C 79.25138 39.78394 79.47946 39.62206 79.55474 39.52635 C 79.92057 39.06116 79.81698999999999 38.36801 79.41144 37.95728 L 79.28832 38.579769999999996 C 79.86358 37.75223 79.8392 36.83074 79.55872 35.894679999999994 C 79.23988999999999 34.830659999999995 78.85204999999999 33.797309999999996 78.44403 32.76123 C 78.25607 32.28397 77.65285 33.00499 77.7634 33.34612 L 77.7634 33.34612 L 77.7634 33.34612 z" stroke-linecap="round" />
</g>
		<g transform="matrix(1 0 0 1 -44.31016381722951 -17.99809167864322)" id="path-04"  >
<path style="stroke: none; stroke-width: 1; stroke-dasharray: none; stroke-linecap: butt; stroke-dashoffset: 0; stroke-linejoin: miter; stroke-miterlimit: 4; fill: rgb(216,194,163); fill-rule: nonzero; opacity: 1;"  paint-order="stroke"  transform=" translate(-80.68983618277049, -26.648188321356777)" d="M 78.21271 22.63867 C 78.52238 23.02618 78.91757 23.32769 79.20623 23.73789 C 79.36092000000001 23.95771 79.47452 24.19929 79.48234000000001 24.47217 C 79.48786000000001 24.664839999999998 79.42784 24.854909999999997 79.43683000000001 25.048299999999998 C 79.45804000000001 25.50445 79.75068000000002 25.627769999999998 80.09284000000001 25.833109999999998 C 80.62053000000002 26.14979 80.72656 26.654329999999998 80.7729 27.220409999999998 C 80.80767 27.645279999999996 80.99492000000001 27.94486 81.26271000000001 28.266319999999997 C 81.38556000000001 28.413789999999995 81.52903 28.551029999999997 81.63645000000001 28.710519999999995 C 81.79587000000001 28.947199999999995 81.75793000000002 29.119329999999994 81.69056 29.385339999999996 C 81.4967 30.150739999999995 81.76965 31.428879999999996 82.7579 31.460229999999996 C 82.99797000000001 31.467839999999995 83.37336 30.974619999999994 83.15844000000001 30.766479999999994 C 82.82683000000002 30.445319999999995 82.42877000000001 30.193849999999994 82.35700000000001 29.693309999999993 C 82.28763000000001 29.209519999999994 82.61057000000001 28.77480999999999 82.45063000000002 28.278809999999993 C 82.33021000000002 27.905389999999993 82.02830000000002 27.672549999999994 81.76734000000002 27.401919999999993 C 81.39641000000002 27.017269999999993 81.52778000000002 26.599979999999995 81.39581000000001 26.127289999999995 C 81.28376000000002 25.725959999999993 80.98425000000002 25.367409999999996 80.62593000000001 25.158829999999995 C 80.48657000000001 25.077699999999993 80.19598 25.049019999999995 80.08885000000001 24.935749999999995 C 79.91680000000001 24.753849999999996 80.13139000000001 24.312699999999996 80.14972 24.101679999999995 C 80.22887 23.190259999999995 79.53792 22.262319999999995 78.74915 21.862309999999994 C 78.4171 21.69393 78.00656 22.38072 78.21271 22.63867 C 78.21271 22.63868 78.21271 22.63868 78.21271 22.63867 z" stroke-linecap="round" />
</g>
		<g transform="matrix(1 0 0 1 -41.01713006978875 -8.124670571308375)" id="path-04"  >
<path style="stroke: none; stroke-width: 1; stroke-dasharray: none; stroke-linecap: butt; stroke-dashoffset: 0; stroke-linejoin: miter; stroke-miterlimit: 4; fill: rgb(216,194,163); fill-rule: nonzero; opacity: 1;"  paint-order="stroke"  transform=" translate(-83.98286993021125, -36.52160942869162)" d="M 82.89143 33.96445 C 83.47492 34.5625 83.22408 35.505919999999996 83.66083 36.19197 C 83.79257 36.3989 83.99276 36.556909999999995 84.09230000000001 36.78467 C 84.19717000000001 37.02467 84.21228 37.29538 84.23691000000001 37.5526 C 84.26578 37.85407 84.29798000000001 38.155519999999996 84.32287000000001 38.45735 C 84.33901 38.65312 84.38416000000001 38.89718 84.27733 39.0711 C 84.17471 39.23818 84.07634 39.58829 84.28819 39.71688 C 84.50533 39.848690000000005 84.75871 39.55807 84.85289 39.403400000000005 C 85.22073 38.79925000000001 85.12924 38.1394 85.06222 37.47139000000001 C 84.99719 36.82314000000001 84.98548 36.161350000000006 84.54643999999999 35.640350000000005 C 84.38313 35.446540000000006 84.25095999999999 35.27541000000001 84.17764 35.029900000000005 C 84.11061 34.805460000000004 84.07724999999999 34.57284000000001 84.03193 34.34353000000001 C 83.94219 33.889410000000005 83.74603 33.44226000000001 83.27528000000001 33.299600000000005 C 83.03149 33.22573 82.71956 33.7883 82.89143 33.96445 L 82.89143 33.96445 L 82.89143 33.96445 z" stroke-linecap="round" />
</g>
		<g transform="matrix(1 0 0 1 -38.51462375600404 -13.43705008112911)" id="path-04"  >
<path style="stroke: none; stroke-width: 1; stroke-dasharray: none; stroke-linecap: butt; stroke-dashoffset: 0; stroke-linejoin: miter; stroke-miterlimit: 4; fill: rgb(216,194,163); fill-rule: nonzero; opacity: 1;"  paint-order="stroke"  transform=" translate(-86.48537624399596, -31.20922991887089)" d="M 83.83773 24.79535 C 84.28590999999999 25.35932 85.23259999999999 25.85332 84.82979999999999 26.72417 C 84.75151 26.893420000000003 84.76830999999999 27.34459 85.07812 27.23645 C 85.56179 27.067610000000002 85.57030999999999 28.45747 85.73174 28.74969 C 85.84437 28.953580000000002 85.99286000000001 29.049 86.19581000000001 29.159190000000002 C 86.27374 29.201500000000003 86.37522000000001 29.20052 86.456 29.23618 C 86.84597000000001 29.29384 86.94301 29.48247 86.74708 29.80206 C 86.75791 30.02728 86.67738 30.20391 86.50551 30.33194 C 86.35622000000001 30.49225 86.26595 30.799229999999998 86.44541 30.96341 C 86.57269 31.07998 86.70008999999999 31.19642 86.82759 31.31273 L 87.14875 30.465919999999997 C 86.39302 30.767109999999995 86.30954000000001 31.706859999999995 86.9265 32.20099999999999 C 87.24471 32.45587999999999 87.45422 32.52692999999999 87.29353 32.95347999999999 C 87.21860000000001 33.15239999999999 87.11548 33.30102999999999 87.104 33.52263999999999 C 87.08644 33.861789999999985 87.25048 34.24844999999999 87.6344 34.22612999999999 L 87.5617 33.723139999999994 C 87.36836 34.045719999999996 87.22682 34.39845 87.21534 34.78133999999999 C 87.20367 35.170519999999996 87.35016 35.29823999999999 87.50937 35.624269999999996 C 87.51745000000001 35.640809999999995 87.54444000000001 35.644639999999995 87.5596 35.640299999999996 C 87.74634 35.586879999999994 88.02199 35.782869999999996 88.11999 35.924369999999996 C 88.27597 36.149539999999995 88.21298 36.31473 88.13867 36.5453 C 88.08887 36.69978 87.98106 36.85993 88.00683000000001 37.0332 C 88.02206000000001 37.13556 88.07804 37.21309 88.13972000000001 37.293 C 88.24944 37.43515 88.45777000000001 37.48527 88.54872000000002 37.69703 C 88.62763000000001 37.88073 88.63232000000002 38.04409 88.61906000000002 38.24393 C 88.59308000000001 38.635349999999995 89.06985000000002 38.311769999999996 89.12715000000001 38.11599 C 89.23975000000002 37.73132 89.22979000000001 37.34121 88.92335000000001 37.040299999999995 C 88.80513000000002 36.92419999999999 88.51966000000002 36.87029 88.48581000000001 36.69714999999999 C 88.47061000000002 36.61939999999999 88.67509000000001 36.314069999999994 88.68942000000001 36.20757999999999 C 88.73596 35.86178999999999 88.57268000000002 35.568949999999994 88.24746000000002 35.44196999999999 C 88.14921000000002 35.40360999999999 87.79294000000002 35.43745999999999 87.74715000000002 35.39985999999999 C 87.45407000000002 35.15917999999999 87.87874000000002 34.188799999999986 87.99195000000002 33.97156999999999 C 88.08380000000001 33.79531999999999 88.14973000000002 33.44375999999999 87.84698000000002 33.47505999999999 C 87.66886000000001 33.49347999999999 88.02542000000001 32.83136999999999 88.05825000000002 32.74127999999999 C 88.13514000000002 32.53028999999999 88.17174000000001 32.31376999999999 88.11248000000002 32.09450999999999 C 88.05882000000003 31.895939999999992 87.93356000000001 31.760819999999992 87.78044000000001 31.62588999999999 C 87.68913 31.545429999999993 87.57725 31.490729999999992 87.48439000000002 31.41315999999999 C 87.37571000000001 31.36322999999999 87.29987000000001 31.28598999999999 87.25687000000002 31.18140999999999 C 87.20649000000002 31.02879999999999 87.14557000000002 31.065919999999988 87.07408000000002 31.29278999999999 C 87.32101000000003 31.192129999999988 87.56425000000003 30.67675999999999 87.30729000000002 30.48180999999999 C 87.17202000000002 30.37905999999999 87.03664000000002 30.27645999999999 86.90115000000003 30.17398999999999 L 86.84105000000002 30.80545999999999 C 87.39410000000002 30.21153999999999 88.02787000000002 29.01500999999999 87.01505000000003 28.519749999999988 C 86.71064000000003 28.37089999999999 86.40228000000003 28.422429999999988 86.25032000000003 28.046709999999987 C 86.16209000000003 27.828589999999988 86.18661000000003 27.573209999999985 86.14755000000002 27.344209999999986 C 86.05549000000002 26.804569999999988 85.84565000000002 26.597079999999988 85.43601000000002 26.292749999999987 L 85.44650000000003 26.916089999999986 C 86.11494000000003 25.856169999999985 85.50427000000003 24.472029999999986 84.38061000000003 24.009599999999985 C 84.04015000000004 23.869489999999985 83.61992000000004 24.521249999999984 83.83772000000003 24.795319999999986 L 83.83772000000003 24.795319999999986 L 83.83773 24.79535 z" stroke-linecap="round" />
</g>
		<g transform="matrix(1 0 0 1 -35.69210981577468 -18.211290631364854)" id="path-04"  >
<path style="stroke: none; stroke-width: 1; stroke-dasharray: none; stroke-linecap: butt; stroke-dashoffset: 0; stroke-linejoin: miter; stroke-miterlimit: 4; fill: rgb(216,194,163); fill-rule: nonzero; opacity: 1;"  paint-order="stroke"  transform=" translate(-89.30789018422533, -26.434989368635144)" d="M 88.23773 25.84364 C 88.42636 25.98717 88.60763 26.13973 88.79471 26.28517 C 88.98080999999999 26.429840000000002 89.18624 26.55028 89.36456 26.70554 C 89.53678 26.85547 89.66812 27.051489999999998 89.81595 27.22385 C 89.96776 27.400859999999998 90.12333 27.57323 90.27079 27.75425 C 90.35773 27.86097 90.49583000000001 27.6345 90.46792 27.551499999999997 C 90.38557 27.30653 90.28416 27.058799999999998 90.16012 26.83169 C 90.03884000000001 26.60961 89.86743000000001 26.420689999999997 89.72572000000001 26.212819999999997 C 89.58627000000001 26.008279999999996 89.45478000000001 25.790359999999996 89.28035000000001 25.613169999999997 C 89.09026000000001 25.420069999999996 88.88564000000001 25.261669999999995 88.65887000000001 25.114199999999997 C 88.50137000000001 25.011779999999998 88.2955 25.230749999999997 88.22946 25.352579999999996 C 88.15102 25.49728 88.08162 25.72485 88.23773 25.84364 C 88.23773 25.84364 88.23773 25.84364 88.23773 25.84364 z" stroke-linecap="round" />
</g>
		<g transform="matrix(1 0 0 1 -33.78488343236841 -12.666245000731578)" id="path-04"  >
<path style="stroke: none; stroke-width: 1; stroke-dasharray: none; stroke-linecap: butt; stroke-dashoffset: 0; stroke-linejoin: miter; stroke-miterlimit: 4; fill: rgb(216,194,163); fill-rule: nonzero; opacity: 1;"  paint-order="stroke"  transform=" translate(-91.21511656763158, -31.98003499926842)" d="M 90.04077 29.17824 C 90.61552999999999 29.35604 90.90749 30.005049999999997 90.78671 30.576269999999997 C 90.73332 30.828719999999997 90.53989 31.034609999999997 90.59785 31.30729 C 90.65831 31.591739999999998 90.97299 31.69343 91.09445 31.946279999999998 C 91.25412999999999 32.27871 91.06007 32.42908 90.93531999999999 32.71962 C 90.83148999999999 32.9614 90.81160999999999 33.24452 91.04427999999999 33.4157 C 91.30909999999999 33.61055 91.57202999999998 33.6652 91.75053999999999 33.974560000000004 C 91.86089999999999 34.165820000000004 91.93024999999999 34.508160000000004 91.76539999999999 34.695870000000006 C 91.67735999999998 34.79612000000001 91.63465999999998 35.10880000000001 91.85356999999999 35.00602000000001 C 92.19206999999999 34.84709000000001 92.37228999999999 34.60716000000001 92.42728 34.221810000000005 C 92.47225999999999 33.90657 92.39484999999999 33.565000000000005 92.178 33.32589000000001 C 92.06081 33.19668000000001 91.91557 33.09386000000001 91.76473 33.008030000000005 C 91.67925 32.9594 91.57821 32.93327000000001 91.49538 32.88313000000001 C 91.38806 32.818160000000006 91.35773999999999 32.81537000000001 91.40338 32.687630000000006 C 91.45891 32.53224000000001 91.56602 32.40565000000001 91.60293 32.23780000000001 C 91.63759 32.08025000000001 91.63521 31.91371000000001 91.5959 31.757430000000006 C 91.55815 31.607380000000006 91.48497 31.482170000000007 91.366 31.382120000000008 C 91.24863 31.283420000000007 91.05433 31.259940000000007 90.95082 31.155100000000008 C 90.75658 30.958350000000006 90.98594999999999 30.732850000000006 91.05617 30.55221000000001 C 91.10874 30.41698000000001 91.12854 30.27712000000001 91.12453 30.13226000000001 C 91.10888999999999 29.56762000000001 90.67173 29.07175000000001 90.13207 28.935420000000008 C 90.03444 28.910760000000007 89.9243 29.142170000000007 90.04078 29.178200000000007 L 90.04078 29.178200000000007 L 90.04077 29.17824 z" stroke-linecap="round" />
</g>
		<g transform="matrix(1 0 0 1 -32.62887257063508 -7.739813301426096)" id="path-04"  >
<path style="stroke: none; stroke-width: 1; stroke-dasharray: none; stroke-linecap: butt; stroke-dashoffset: 0; stroke-linejoin: miter; stroke-miterlimit: 4; fill: rgb(216,194,163); fill-rule: nonzero; opacity: 1;"  paint-order="stroke"  transform=" translate(-92.37112742936492, -36.9064666985739)" d="M 91.89166 36.15715 C 91.8983 36.15541 91.97048 36.14005 91.94118 36.143860000000004 C 91.91614 36.147110000000005 91.98704000000001 36.14484 91.98827 36.14493 C 92.00665 36.146300000000004 92.02487 36.14911 92.043 36.15234 C 92.1199 36.16603 92.02689000000001 36.142700000000005 92.06741000000001 36.15919 C 92.15263000000002 36.19389 92.21360000000001 36.24184 92.25563000000001 36.289500000000004 C 92.28613000000001 36.3241 92.31360000000001 36.361290000000004 92.33863000000001 36.40001 C 92.36198 36.436150000000005 92.39164000000001 36.4916 92.39525 36.49993 C 92.41445 36.54435 92.43003 36.59049 92.44309 36.63707 C 92.45035 36.662980000000005 92.45624 36.6892 92.46195 36.71548 C 92.46426 36.72612 92.47294000000001 36.79557 92.46729 36.74129 C 92.51981 37.24617 92.28027 37.75598 92.32831 38.28024 C 92.34173 38.42668 92.44874 38.50403 92.58682 38.42948 C 92.72042 38.35734 92.85256 38.156819999999996 92.83555 37.99865 C 92.76841 37.37415 93.19776 36.81431 93.05927 36.18362 C 92.95633 35.71476 92.56385999999999 35.240919999999996 92.03833 35.37898 C 91.84072 35.43089 91.69630000000001 35.65362 91.66168 35.84509 C 91.63407000000001 35.99776 91.69321000000001 36.20925 91.89168000000001 36.15712 L 91.89168000000001 36.15712 L 91.89166 36.15715 z" stroke-linecap="round" />
</g>
		<g transform="matrix(1 0 0 1 -29.75895264196999 -12.294738232708335)" id="path-04"  >
<path style="stroke: none; stroke-width: 1; stroke-dasharray: none; stroke-linecap: butt; stroke-dashoffset: 0; stroke-linejoin: miter; stroke-miterlimit: 4; fill: rgb(216,194,163); fill-rule: nonzero; opacity: 1;"  paint-order="stroke"  transform=" translate(-95.24104735803002, -32.351541767291664)" d="M 93.0984 27.2344 C 93.56603 27.73232 93.96489 28.26682 94.16748 28.928060000000002 C 94.33971 29.4902 94.25462999999999 30.13587 94.50562 30.670520000000003 C 94.74316999999999 31.176550000000002 95.55443 31.449070000000003 95.35932 32.07432 C 95.22877 32.49271 94.96468 32.9257 95.16705999999999 33.36872 C 95.38882 33.854200000000006 96.02449999999999 33.880610000000004 96.18476999999999 34.435900000000004 C 96.28138999999999 34.77066000000001 96.18100999999999 34.99953000000001 96.07020999999999 35.30727 C 96.00829999999999 35.47925 95.96246 35.65974 96.04911999999999 35.830780000000004 C 96.26704999999998 36.260870000000004 96.95212999999998 36.12594000000001 96.91592999999999 36.74287 C 96.88825999999999 37.21452 96.6325 37.62257 96.72719 38.10586000000001 C 96.77256999999999 38.33746000000001 97.10123999999999 37.995990000000006 97.06349999999999 37.81685000000001 C 96.94172999999999 37.23892000000001 97.56683999999998 36.789620000000006 97.40907999999999 36.18967000000001 C 97.35038999999999 35.96647000000001 97.20375999999999 35.83133000000001 96.99842999999998 35.74105000000001 C 96.83894999999998 35.67092000000001 96.41697999999998 35.62344000000001 96.42311999999998 35.41545000000001 C 96.42642999999998 35.303180000000005 96.73918999999998 34.99958000000001 96.79584999999999 34.84606000000001 C 96.87972999999998 34.61877000000001 96.90981 34.38546000000001 96.87816 34.14585000000001 C 96.79623 33.52548000000001 96.44415 33.29817000000001 95.97228 32.97102000000001 C 95.60554 32.71675000000001 95.80888999999999 32.46239000000001 95.92752 32.12725000000001 C 96.01833 31.87069000000001 96.09293 31.60926000000001 96.05484 31.33456000000001 C 95.97027 30.72438000000001 95.3009 30.57874000000001 95.11252 30.04631000000001 C 95.00411 29.739930000000008 95.0865 29.37091000000001 95.04095000000001 29.051210000000008 C 94.99393 28.72125000000001 94.90586 28.402580000000007 94.77606000000002 28.09547000000001 C 94.51493000000002 27.47766000000001 94.12061000000001 26.93850000000001 93.57018000000002 26.55156000000001 C 93.30733000000002 26.36678000000001 92.90434000000002 27.02777000000001 93.09838000000002 27.23438000000001 L 93.09838000000002 27.23438000000001 L 93.0984 27.23438000000001 z" stroke-linecap="round" />
</g>
		<g transform="matrix(1 0 0 1 -25.66465335536811 -10.898089503558056)" id="path-04"  >
<path style="stroke: none; stroke-width: 1; stroke-dasharray: none; stroke-linecap: butt; stroke-dashoffset: 0; stroke-linejoin: miter; stroke-miterlimit: 4; fill: rgb(216,194,163); fill-rule: nonzero; opacity: 1;"  paint-order="stroke"  transform=" translate(-99.3353466446319, -33.74819049644194)" d="M 98.02168 28.88726 C 99.04559 29.28884 98.48544 30.91475 98.87932 31.721970000000002 C 99.10385000000001 32.18209 99.64286000000001 32.416560000000004 99.7335 32.952220000000004 C 99.83602 33.558110000000006 99.44452000000001 34.19547000000001 99.14385 34.68916 C 99.02661 34.881660000000004 98.96154 35.21931 99.23236 35.30147 C 99.54665 35.3968 99.78822 35.6419 99.91256 35.94211 C 100.05824 36.29385 99.98013 36.51409 99.81136 36.82411 C 99.67482 37.07492 99.55899 37.345259999999996 99.60381 37.63834 C 99.62494 37.77652 99.67820999999999 37.89811 99.74633 38.01947 C 99.84557 38.19627 99.9324 38.45101 100.13733 38.401779999999995 C 99.83179000000001 38.47519 99.56435 39.264199999999995 99.99263 39.16954 C 100.43098 39.07266 100.66940000000001 38.60191 100.65106 38.1767 C 100.63892 37.89541 100.50651 37.716069999999995 100.3762 37.47841 C 100.20264999999999 37.16186999999999 100.44708 37.028569999999995 100.57491 36.73392 C 100.97970000000001 35.80085 100.57306 34.68819 99.57914000000001 34.379259999999995 L 99.66765000000001 34.991569999999996 C 100.03936 34.38695 100.37953 33.725049999999996 100.44079 33.00673 C 100.49996 32.31295 100.22914 31.89766 99.7536 31.427829999999997 C 99.18212000000001 30.86322 99.37483 30.156239999999997 99.24417000000001 29.437309999999997 C 99.14606 28.897479999999998 98.84299000000001 28.451589999999996 98.28948000000001 28.322179999999996 C 98.07974 28.27316 97.80058 28.80054 98.02168 28.88726 L 98.02168 28.88726 L 98.02168 28.88726 z" stroke-linecap="round" />
</g>
		<g transform="matrix(1 0 0 1 -22.125154809425233 -11.291158424066843)" id="path-04"  >
<path style="stroke: none; stroke-width: 1; stroke-dasharray: none; stroke-linecap: butt; stroke-dashoffset: 0; stroke-linejoin: miter; stroke-miterlimit: 4; fill: rgb(216,194,163); fill-rule: nonzero; opacity: 1;"  paint-order="stroke"  transform=" translate(-102.87484519057477, -33.355121575933154)" d="M 104.87637 38.69562 C 105.1177 38.2637 105.3993 37.74066 105.26386 37.227959999999996 C 105.15250999999999 36.806459999999994 104.77044 36.518879999999996 104.3395 36.60368 L 104.4268 36.90268 C 104.65034 36.518899999999995 104.58995 36.16101 104.39536 35.77816 C 104.26138999999999 35.51457 104.07889 35.27161 103.97355 34.99388 C 103.85513 34.68163 103.94869 34.438269999999996 104.00465 34.12685 C 104.03742 33.944469999999995 104.06922 33.7174 103.94957 33.55741 C 103.77534 33.324459999999995 103.36836 33.453019999999995 103.27677 33.14729 C 103.18902 32.85441 103.45183 32.548829999999995 103.55983 32.29999 C 103.64755000000001 32.09784 103.72337 31.86385 103.71285 31.64067 C 103.70454000000001 31.46477 103.65402 31.29526 103.51098 31.18153 C 103.29443 31.009369999999997 102.99585 31.126289999999997 102.77171 30.986849999999997 C 102.40877 30.761059999999997 102.42985 30.127709999999997 102.34441 29.759839999999997 C 102.25394 29.370329999999996 102.0979 29.051829999999995 101.69709999999999 28.91971 C 101.47614999999999 28.84688 101.24555 28.87699 101.15518999999999 28.597179999999998 C 101.12581999999999 28.506259999999997 101.16322999999998 28.389789999999998 101.1432 28.292939999999998 C 101.09813999999999 28.075139999999998 100.98836999999999 27.89454 100.74909 27.893109999999997 C 100.54281999999999 27.891869999999997 100.30888999999999 28.381629999999998 100.55857999999999 28.399779999999996 C 100.80615999999999 28.417779999999997 100.69498999999999 28.991329999999998 100.78872 29.160449999999997 C 100.89128 29.345489999999998 101.06447 29.389549999999996 101.25780999999999 29.432129999999997 C 101.76304999999999 29.54339 101.90789 29.773329999999998 102.00980999999999 30.268379999999997 C 102.07925999999999 30.605739999999997 102.10907999999999 31.003989999999998 102.33718999999999 31.280709999999996 C 102.64026 31.648339999999994 103.41499999999999 31.386189999999996 103.31555999999999 32.00572 C 103.24596 32.439339999999994 102.90122 32.76401 102.87051999999998 33.224849999999996 C 102.85807999999999 33.41148999999999 102.87746999999999 33.59213999999999 103.00920999999998 33.734199999999994 C 103.21904999999998 33.96048 103.63374999999998 33.82545999999999 103.62343999999999 34.22366999999999 C 103.61801999999999 34.432689999999994 103.51862999999999 34.63181999999999 103.52304 34.84597999999999 C 103.52698 35.03726999999999 103.58721999999999 35.22258999999999 103.66351999999999 35.39602999999999 C 103.82037999999999 35.75251999999999 104.37898999999999 36.34939999999999 104.1677 36.75305999999999 C 104.12317999999999 36.83809999999999 104.06888 37.10106999999999 104.255 37.05205999999999 C 104.56823999999999 36.96957999999999 104.86635 37.19462999999999 104.94751 37.49978999999999 C 105.04579 37.86928999999999 104.8205 38.25593999999999 104.65155 38.56578999999999 C 104.52611 38.795849999999994 104.7468 38.92750999999999 104.87638 38.69559999999999 L 104.87638 38.69559999999999 L 104.87637 38.69562 z" stroke-linecap="round" />
</g>
		<g transform="matrix(1 0 0 1 -27.59526567663231 -17.569834919746228)" id="path-04"  >
<path style="stroke: none; stroke-width: 1; stroke-dasharray: none; stroke-linecap: butt; stroke-dashoffset: 0; stroke-linejoin: miter; stroke-miterlimit: 4; fill: rgb(216,194,163); fill-rule: nonzero; opacity: 1;"  paint-order="stroke"  transform=" translate(-97.40473432336769, -27.07644508025377)" d="M 96.85096 26.56547 C 96.87579 26.582990000000002 96.9 26.60117 96.92377 26.62009 L 96.88801000000001 26.49775 C 96.87763000000001 26.56178 96.86981000000002 26.64393 96.92186000000001 26.69238 C 96.94849 26.71718 96.98569 26.73109 97.0172 26.74952 C 97.06968 26.78023 97.12001000000001 26.81471 97.16775 26.85239 C 97.26067 26.92573 97.34416 27.0167 97.41854 27.12302 C 97.45535 27.17563 97.48861 27.23068 97.51807 27.28774 C 97.53895999999999 27.328219999999998 97.56045999999999 27.39008 97.58877 27.45131 C 97.58803 27.4497 97.61399999999999 27.50666 97.60152 27.478369999999998 C 97.60853999999999 27.49428 97.61537 27.51035 97.62163 27.52658 C 97.63230999999999 27.55419 97.63994 27.58242 97.64667 27.61123 C 97.65341 27.64011 97.65913 27.669269999999997 97.66368 27.69858 C 97.65922 27.66977 97.66643 27.724339999999998 97.66643 27.72442 C 97.66815000000001 27.7423 97.66933 27.760199999999998 97.67037 27.778129999999997 C 97.67586 27.873009999999997 97.74955 27.920189999999998 97.83577000000001 27.87363 C 97.93057000000002 27.82244 97.99318000000001 27.70366 97.99493000000001 27.597959999999997 C 97.99744000000001 27.445909999999998 97.97564000000001 27.28973 97.94181 27.141589999999997 C 97.91036 27.003909999999998 97.82811000000001 26.865119999999997 97.7474 26.75032 C 97.66419 26.63197 97.56217 26.52704 97.44969 26.436239999999998 C 97.3977 26.39427 97.34254 26.356109999999997 97.2848 26.32248 C 97.25361000000001 26.304309999999997 97.2215 26.28511 97.18802000000001 26.27142 C 97.10895000000001 26.239079999999998 97.03337 26.288619999999998 96.97778000000001 26.342299999999998 L 97.07386000000001 26.30341 C 97.04263000000002 26.299129999999998 97.01141000000001 26.295749999999998 96.98001000000001 26.29321 C 96.87504 26.28476 96.75146 26.49525 96.85096 26.56547 C 96.85096 26.56548 96.85096 26.56548 96.85096 26.56547 z" stroke-linecap="round" />
</g>
		<g transform="matrix(1 0 0 1 -2.446629999999999 34.180170000000004)" id="path-03"  >
<path style="stroke: none; stroke-width: 1; stroke-dasharray: none; stroke-linecap: butt; stroke-dashoffset: 0; stroke-linejoin: miter; stroke-miterlimit: 4; fill: rgb(119,23,23); fill-rule: nonzero; opacity: 1;"  paint-order="stroke"  transform=" translate(-122.55337, -78.82645)" d="M 80.25438 75.8484 C 108.39665 77.08743 136.81450999999998 79.08242 164.85236 81.8045 C 136.70978 80.57109 108.29256 78.56473 80.25438 75.8484 C 80.25439 75.8484 80.25439 75.8484 80.25438 75.8484 z" stroke-linecap="round" />
</g>
		<g transform="matrix(1 0 0 1 -19.581774999999993 1.9888000000000048)" id="path-02"  >
<path style="stroke: none; stroke-width: 1; stroke-dasharray: none; stroke-linecap: butt; stroke-dashoffset: 0; stroke-linejoin: miter; stroke-miterlimit: 4; fill: rgb(193,166,133); fill-rule: nonzero; opacity: 1;"  paint-order="stroke"  transform=" translate(-105.418225, -46.63508)" d="M 59.98359 58.64912 C 66.6604 46.90069 77.77631 42.2927 90.81372 41.62344 C 110.94681 40.68078 132.29275 44.57808 150.85286000000002 34.62104 C 132.43396 45.26524 111.05060000000003 41.47378 90.85505000000002 42.29254 C 77.83708000000001 42.93222 67.06524000000002 47.197230000000005 59.98361000000002 58.64912 L 59.98361000000002 58.64912 L 59.98359 58.64912 z" stroke-linecap="round" />
</g>
		<g transform="matrix(1 0 0 1 -18.63615000000003 4.729749999999999)" id="path-02"  >
<path style="stroke: none; stroke-width: 1; stroke-dasharray: none; stroke-linecap: butt; stroke-dashoffset: 0; stroke-linejoin: miter; stroke-miterlimit: 4; fill: rgb(193,166,133); fill-rule: nonzero; opacity: 1;"  paint-order="stroke"  transform=" translate(-106.36384999999997, -49.37603)" d="M 62.93881 59.82295 C 71.61801 45.15643 88.87445 43.666349999999994 104.30004 44.32807 C 112.00465 44.50561999999999 119.71927 45.736529999999995 127.39544 44.67666 C 135.05596 43.68734 142.44198 41.249719999999996 149.78888999999998 38.929109999999994 C 142.51583 41.55318 135.15963 44.11382 127.47295999999997 45.23940999999999 C 119.79034999999998 46.43431999999999 111.98698999999998 45.18459999999999 104.27289999999996 45.06501999999999 C 89.02383999999996 44.32277999999999 71.92061999999996 45.70663999999999 62.93880999999996 59.82293999999999 L 62.93880999999996 59.82293999999999 L 62.93881 59.82295 z" stroke-linecap="round" />
</g>
		<g transform="matrix(1 0 0 1 -17.800174999999996 6.791393750000005)" id="path-02"  >
<path style="stroke: none; stroke-width: 1; stroke-dasharray: none; stroke-linecap: butt; stroke-dashoffset: 0; stroke-linejoin: miter; stroke-miterlimit: 4; fill: rgb(193,166,133); fill-rule: nonzero; opacity: 1;"  paint-order="stroke"  transform=" translate(-107.199825, -51.43767375)" d="M 66.14498 60.53922 C 82.22384 44.31548 106.80066 48.64549 127.47404 47.026650000000004 C 134.57003 46.48843 141.69269 45.23509000000001 148.25467 42.33612 C 145.04704 43.9264 141.62489 45.068870000000004 138.14180000000002 45.91711 C 114.39774 51.64814 85.78116 42.36433 66.14498 60.53922 C 66.14498 60.53923 66.14498 60.53923 66.14498 60.53922 z" stroke-linecap="round" />
</g>
		<g transform="matrix(1 0 0 1 -15.519965 8.335934999999996)" id="path-02"  >
<path style="stroke: none; stroke-width: 1; stroke-dasharray: none; stroke-linecap: butt; stroke-dashoffset: 0; stroke-linejoin: miter; stroke-miterlimit: 4; fill: rgb(193,166,133); fill-rule: nonzero; opacity: 1;"  paint-order="stroke"  transform=" translate(-109.480035, -52.982215)" d="M 72.12572 59.94014 C 94.45047 45.46147 122.85171 55.12162 146.83435 46.02428 C 143.90008 47.30168 140.82335 48.243849999999995 137.70587 48.98518 C 116.08813 53.99595 91.98948000000001 48.12786 72.12572 59.94015 L 72.12572 59.94015 L 72.12572 59.94014 z" stroke-linecap="round" />
</g>
		<g transform="matrix(1 0 0 1 -88.64601625 -12.931745)" id="path-02"  >
<path style="stroke: none; stroke-width: 1; stroke-dasharray: none; stroke-linecap: butt; stroke-dashoffset: 0; stroke-linejoin: miter; stroke-miterlimit: 4; fill: rgb(193,166,133); fill-rule: nonzero; opacity: 1;"  paint-order="stroke"  transform=" translate(-36.353983750000005, -31.714535)" d="M 54.7961 56.19473 C 52.811930000000004 48.60441 50.811350000000004 40.72157 46.693830000000005 33.97973 C 43.95548000000001 29.396770000000004 39.63194000000001 26.293960000000006 35.147200000000005 23.54502 C 28.313130000000005 19.41911 22.463840000000005 13.78148 17.911860000000004 7.2343399999999995 C 21.222500000000004 11.36169 24.822420000000005 15.27421 28.993110000000005 18.50058 C 33.13696 21.83309 37.96177 24.11314 42.077830000000006 27.512900000000002 C 50.28099 34.66498 52.62293 46.02507 54.7961 56.19473 C 54.79611 56.19473 54.79611 56.19473 54.7961 56.19473 z" stroke-linecap="round" />
</g>
		<g transform="matrix(1 0 0 1 -90.79037375 -11.988718749999997)" id="path-02"  >
<path style="stroke: none; stroke-width: 1; stroke-dasharray: none; stroke-linecap: butt; stroke-dashoffset: 0; stroke-linejoin: miter; stroke-miterlimit: 4; fill: rgb(193,166,133); fill-rule: nonzero; opacity: 1;"  paint-order="stroke"  transform=" translate(-34.20962625, -32.65756125)" d="M 15.96434 9.51341 C 20.86739 15.372720000000001 26.833660000000002 20.09468 33.00629 24.52308 C 41.94793 30.78586 48.40628 37.391 51.04065 48.321110000000004 C 51.75145 50.7689 52.04712 53.302440000000004 52.45492 55.80172 C 51.88161 53.32858 51.516 50.816320000000005 50.6921 48.41872 C 49.53848000000001 44.18042 47.577420000000004 40.13447 45.05747 36.54414 C 43.19435 34.04157 40.95967 31.744819999999997 38.56939 29.74277 C 34.754619999999996 26.4484 30.48657 23.664450000000002 26.57585 20.41104 C 22.66703 17.25723 19.02634 13.50467 15.96434 9.51341 C 15.96433 9.5134 15.96433 9.5134 15.96434 9.51341 z" stroke-linecap="round" />
</g>
		<g transform="matrix(1 0 0 1 -93.378385 -13.47180499999999)" id="path-02"  >
<path style="stroke: none; stroke-width: 1; stroke-dasharray: none; stroke-linecap: butt; stroke-dashoffset: 0; stroke-linejoin: miter; stroke-miterlimit: 4; fill: rgb(193,166,133); fill-rule: nonzero; opacity: 1;"  paint-order="stroke"  transform=" translate(-31.621615, -31.174475000000005)" d="M 14.43734 10.67876 C 24.718870000000003 27.36111 45.54631 29.83372 48.80589 51.670190000000005 C 44.35114 29.97348 23.93649 28.10379 14.43734 10.67876 C 14.43734 10.67876 14.43734 10.67876 14.43734 10.67876 z" stroke-linecap="round" />
</g>
		<g transform="matrix(1 0 0 1 -89.53864999999999 -8.013735000000004)" id="path-02"  >
<path style="stroke: none; stroke-width: 1; stroke-dasharray: none; stroke-linecap: butt; stroke-dashoffset: 0; stroke-linejoin: miter; stroke-miterlimit: 4; fill: rgb(193,166,133); fill-rule: nonzero; opacity: 1;"  paint-order="stroke"  transform=" translate(-35.46135, -36.63254499999999)" d="M 26.83331 27.13889 C 34.47692 31.28248 40.68217 38.128389999999996 44.08941 46.1262 C 43.6088 45.329359999999994 42.90447 44.15439 42.3864 43.36268 C 38.32049 37.00093 32.98217 31.514739999999996 26.83329 27.138889999999996 L 26.83329 27.138889999999996 L 26.83331 27.138889999999996 z" stroke-linecap="round" />
</g>
		<g transform="matrix(1 0 0 1 73.826515 2.1915650000000078)" id="path-01"  >
<path style="stroke: none; stroke-width: 1; stroke-dasharray: none; stroke-linecap: butt; stroke-dashoffset: 0; stroke-linejoin: miter; stroke-miterlimit: 4; fill: rgb(175,148,117); fill-rule: nonzero; opacity: 1;"  paint-order="stroke"  transform=" translate(-198.826515, -46.837845)" d="M 236.50699 58.64912 C 212.14804 51.527710000000006 185.23169000000001 43.078050000000005 161.14604 35.02657000000001 C 185.52298 42.16606 212.43629 50.58969 236.50699 58.64912 L 236.50699 58.64912 z" stroke-linecap="round" />
</g>
		<g transform="matrix(1 0 0 1 73.826515 4.601330000000004)" id="path-01"  >
<path style="stroke: none; stroke-width: 1; stroke-dasharray: none; stroke-linecap: butt; stroke-dashoffset: 0; stroke-linejoin: miter; stroke-miterlimit: 4; fill: rgb(175,148,117); fill-rule: nonzero; opacity: 1;"  paint-order="stroke"  transform=" translate(-198.826515, -49.24761)" d="M 236.50699 60.53922 C 212.15398 53.75348 185.2375 45.67493 161.14604 37.956 C 185.5173 44.75941 212.43025 52.81185 236.50699 60.53922 L 236.50699 60.53922 z" stroke-linecap="round" />
</g>
		<g transform="matrix(1 0 0 1 74.00931 7.666699999999999)" id="path-01"  >
<path style="stroke: none; stroke-width: 1; stroke-dasharray: none; stroke-linecap: butt; stroke-dashoffset: 0; stroke-linejoin: miter; stroke-miterlimit: 4; fill: rgb(175,148,117); fill-rule: nonzero; opacity: 1;"  paint-order="stroke"  transform=" translate(-199.00931, -52.312979999999996)" d="M 236.17453 62.72931 C 212.16125 56.50851 185.61218 49.055299999999995 161.84409 41.896649999999994 C 185.87558 48.13501 212.42055 55.56212 236.17453 62.72931 L 236.17453 62.72931 z" stroke-linecap="round" />
</g>
</g>
</g>
<g transform="matrix(-0.21699090097373883 0.7097452566371845 -0.7097452566371845 -0.21699090097373883 618.4660272808015 215.37255942813596)" id="shape-9e9bb0b7-bd9f-4f63-840c-4df6e5d7a767"  >
<g style=""  paint-order="stroke"   >
		<g transform="matrix(1 0 0 1 0 0)" id="path-3"  >
<linearGradient id="SVGID_21_3_2_480312" gradientUnits="userSpaceOnUse" gradientTransform="matrix(1 0 0 1 -0.00001217446390455734 0.0020252779923879416)"  x1="138.61500608723196" y1="0" x2="138.61500608723196" y2="130">
<stop offset="0%" style="stop-color:rgb(172,42,33);stop-opacity: 1"/>
<stop offset="72%" style="stop-color:rgb(225,136,11);stop-opacity: 1"/>
</linearGradient>
<path style="stroke: none; stroke-width: 1; stroke-dasharray: none; stroke-linecap: butt; stroke-dashoffset: 0; stroke-linejoin: miter; stroke-miterlimit: 4; fill: url(#SVGID_21_3_2_480312); fill-rule: nonzero; opacity: 1;"  paint-order="stroke"  transform=" translate(-138.61499391276806, -65.0117654635019)" d="M 28.44 65.5 C 28.44 73.45 34.9 79.91 42.85 79.91 C 50.800000000000004 79.91 57.260000000000005 73.45 57.260000000000005 65.5 C 57.260000000000005 57.55 50.800000000000004 51.09 42.85000000000001 51.09 C 34.90000000000001 51.09 28.44000000000001 57.550000000000004 28.44000000000001 65.5 Z M 53.260000000000005 65.5 C 53.260000000000005 71.24 48.59 75.91 42.85000000000001 75.91 C 37.110000000000014 75.91 32.44000000000001 71.24 32.44000000000001 65.5 C 32.44000000000001 59.760000000000005 37.110000000000014 55.09 42.85000000000001 55.09 C 48.59 55.09 53.260000000000005 59.760000000000005 53.260000000000005 65.5 Z M 125.06 86.15 C 123.86 93.55000000000001 119.92 100.26 115.32000000000001 106.07000000000001 C 76.52 152.88 0.86 126.68 0 65.5 C -0.03 14.79 55.39 -16.9 98.84 9.55 C 111.62 17.32 122.27000000000001 29.990000000000002 125.06 44.849999999999994 C 118.15 32.10999999999999 109.21000000000001 20.529999999999994 96.56 13.389999999999993 C 47.33 -13.92 -8.85 32.72 9.45 86.1 C 21.95 121.53 64.42 137.57999999999998 96.98 118.28999999999999 C 103.99000000000001 114.25999999999999 109.97 108.61999999999999 115.03 102.32999999999998 C 118.92 97.26999999999998 121.8 91.61999999999998 125.06 86.13999999999999 Z M 277.23 73.95 C 276.70000000000005 75.07000000000001 275.84000000000003 75.63000000000001 274.97 76.18 C 274.34000000000003 76.63000000000001 273.04 77.43 272.37 77.82000000000001 C 267.19 80.86000000000001 261.58 84.53 256.29 87.45 C 256.11 87.45 242.69000000000003 87.69 242.79000000000002 87.69 L 242.3 87.13 L 234.20000000000002 77.77 C 231.59 81.21 228.97000000000003 84.64999999999999 226.31000000000003 88.06 C 219.69000000000003 88.09 213.07000000000002 88.17 206.45000000000005 88.15 L 205.90000000000003 87.03 L 200.94000000000003 76.99000000000001 L 192.82000000000002 76.99000000000001 L 185.8 87.25000000000001 L 185.21 88.11000000000001 C 179.96 88.11000000000001 174.70000000000002 88.07000000000001 169.45000000000002 88.01000000000002 L 168.92000000000002 87.16000000000003 L 162.35000000000002 76.74000000000002 L 152.22000000000003 76.56000000000002 L 145.72000000000003 86.86000000000001 L 145.30000000000004 87.52000000000001 L 144.55000000000004 87.52000000000001 C 138.03000000000003 87.41000000000001 131.53000000000003 87.21000000000001 125.06000000000004 86.15 C 131.27000000000004 85.13000000000001 137.50000000000006 84.9 143.76000000000005 84.80000000000001 L 150.02000000000004 74.16000000000001 L 150.46000000000004 73.42000000000002 L 151.37000000000003 73.42000000000002 C 151.37000000000003 73.42000000000002 163.33000000000004 73.27000000000001 163.33000000000004 73.27000000000001 L 164.26000000000005 73.27000000000001 C 164.26000000000005 73.27000000000001 164.79000000000005 74.07000000000001 164.79000000000005 74.07000000000001 L 171.50000000000006 84.27000000000001 C 175.38000000000005 84.23 179.25000000000006 84.20000000000002 183.13000000000005 84.19000000000001 L 190.10000000000005 73.85000000000001 L 190.69000000000005 72.97000000000001 C 192.31000000000006 72.97000000000001 201.85000000000005 72.97000000000001 203.45000000000005 72.97000000000001 L 204.00000000000006 74.09000000000002 L 208.95000000000005 84.15000000000002 C 214.12000000000003 84.15000000000002 219.29000000000005 84.20000000000002 224.45000000000005 84.23000000000002 C 227.19000000000005 80.77000000000002 229.95000000000005 77.32000000000002 232.73000000000005 73.90000000000002 L 234.12000000000003 72.19000000000003 L 235.47000000000003 73.86000000000003 L 244.22000000000003 84.64000000000003 L 255.59000000000003 84.84000000000003 C 260.6 81.85000000000004 266.41 79.04000000000003 271.43 76.18000000000004 C 272.04 75.81000000000003 273.5 75.08000000000004 274.16 74.77000000000004 C 275.07000000000005 74.31000000000004 275.99 73.85000000000004 277.23 73.95000000000005 Z M 272.66 66.12 C 274.24 68.69 275.77000000000004 71.29 277.23 73.95 C 275.15000000000003 71.75 273.13 69.5 271.16 67.22 C 268.98 64.69 266.8 62.14 264.65000000000003 59.55 L 145.62000000000003 57.559999999999995 L 261.48 55.62 C 259.18 52.709999999999994 256.98 49.739999999999995 254.95000000000002 46.66 L 133.16000000000003 44.83 L 255.94000000000003 42.989999999999995 L 256.79 42.989999999999995 C 262.79 50.129999999999995 267.77000000000004 58.19 272.66 66.11 Z M 20.590000000000032 79.42 C 32.95000000000003 118.30000000000001 83.68000000000004 125.02000000000001 106.61000000000003 91.56 C 84.56000000000003 128.75 29.860000000000028 121.46000000000001 16.860000000000028 80.55 C 8.790000000000028 54.239999999999995 23.46000000000003 26.159999999999997 49.730000000000025 17.939999999999998 C 61.43000000000002 14.319999999999997 74.51000000000002 15.119999999999997 85.58000000000003 20.43 C 95.28000000000003 25.12 103.34000000000003 32.93 108.12000000000003 42.57 C 102.72000000000003 33.56 94.49000000000004 26.22 84.78000000000003 22.22 C 47.49 6.99 9.46 40.51 20.59 79.43 Z" stroke-linecap="round" />
</g>
</g>
</g>
<g transform="matrix(1.4537029961969519 0.41684262642322983 -0.41684262642322983 1.4537029961969519 555.1986692806508 436.0120575415155)" id="shape-ab025f15-64c6-49e8-b52a-b386dde6a400"  >
<g style=""  paint-order="stroke"   >
		<g transform="matrix(1 0 0 1 -7.5087549999999865 56.055740000000014)" id="Path-04"  >
<path style="stroke: none; stroke-width: 1; stroke-dasharray: none; stroke-linecap: butt; stroke-dashoffset: 0; stroke-linejoin: miter; stroke-miterlimit: 4; fill: rgb(234,194,104); fill-rule: nonzero; opacity: 1;"  paint-order="stroke"  transform=" translate(-38.0611, -181.05574000000001)" d="M 76.1222 168.63115 L 50.29275 230.3134 L 50.67827 185.97928000000002 C 53.21494 185.16396 56.334109999999995 182.50964000000002 56.334109999999995 175.18488000000002 C 56.334109999999995 168.8239 45.637699999999995 168.48560000000003 45.637699999999995 168.48560000000003 C 45.61503 168.48560000000003 45.61503 168.48560000000003 45.592349999999996 168.48560000000003 C 42.127129999999994 168.48560000000003 39.296009999999995 171.29406000000003 39.296009999999995 174.78208000000004 C 39.296009999999995 177.56786000000002 41.13057 179.94597000000005 43.66723999999999 180.76130000000003 L 43.66723999999999 249.99917000000005 L 39.86222999999999 249.99917000000005 C 39.86222999999999 249.99917000000005 34.17731999999999 225.67422000000005 18.11914999999999 198.76725000000005 C 2.08367 171.8376 0 169.00648 0 169.00648 L 6.25113 159.51657 C 13.091159999999999 149.14345 18.52683 137.90951 22.39985 126.08682999999999 L 24.07585 120.99081 L 30.82519 116.55156 C 35.309779999999996 113.58455 40.47367 112.11231 45.637699999999995 112.11231 L 76.1222 168.63115 z" stroke-linecap="round" />
</g>
		<g transform="matrix(1 0 0 1 22.796210000000002 56.05615499999999)" id="Path-03"  >
<path style="stroke: none; stroke-width: 1; stroke-dasharray: none; stroke-linecap: butt; stroke-dashoffset: 0; stroke-linejoin: miter; stroke-miterlimit: 4; fill: rgb(198,149,52); fill-rule: nonzero; opacity: 1;"  paint-order="stroke"  transform=" translate(-68.36606499999999, -181.056155)" d="M 91.13971 169.00676 C 91.13971 169.00676 89.07885999999999 171.83789000000002 73.02054999999999 198.76781000000003 C 56.98491 225.6745 51.27733 250 51.27733 250 L 47.47246 250 L 47.47246 180.76144 C 50.009409999999995 179.94638 51.84355 177.56869 51.84355 174.78291 C 51.84355 171.31699999999998 49.0351 168.50911 45.592420000000004 168.48587999999998 L 45.592420000000004 112.11230999999998 C 50.73378 112.11230999999998 55.875130000000006 113.58537999999999 60.33691 116.55251999999999 L 67.06358 120.99162999999999 L 68.73958 126.08764999999998 C 72.61303000000001 137.90977999999998 78.04855 149.14356999999998 84.88857 159.51699 L 91.13971 169.00676 z" stroke-linecap="round" />
</g>
		<g transform="matrix(1 0 0 1 -6.726589944391819 -67.03)" id="Path-02"  >
<linearGradient id="SVGID_22_6_4_480314" gradientUnits="userSpaceOnUse" gradientTransform="matrix(1 0 0 1 7.20301011121634 0)"  x1="31.640254944391813" y1="0" x2="31.64025494439185" y2="115.94">
<stop offset="0%" style="stop-color:rgb(250,217,97);stop-opacity: 1"/>
<stop offset="100%" style="stop-color:rgb(247,107,28);stop-opacity: 1"/>
</linearGradient>
<path style="stroke: none; stroke-width: 1; stroke-dasharray: none; stroke-linecap: butt; stroke-dashoffset: 0; stroke-linejoin: miter; stroke-miterlimit: 4; fill: url(#SVGID_22_6_4_480314); fill-rule: nonzero; opacity: 1;"  paint-order="stroke"  transform=" translate(-38.84326505560817, -57.97)" d="M 59.55211 100.83418 L 45.637699999999995 104.07197000000001 C 41.51557 104.07197000000001 37.39344 105.22709 33.792199999999994 107.53733000000001 L 20.70118 115.94 L 18.11917 103.77752 L 30.44021 96.59783999999999 C 35.12856 93.85726 40.38314 92.49838 45.63771 92.49838 L 59.55211 100.83418 z M 45.6377 0 C 45.6377 0 5.684910000000002 9.55793 7.247690000000006 33.88288 C 8.81047000000001 58.20783 20.701170000000005 92.63427 20.701170000000005 92.63427 L 24.868640000000006 90.21082 C 31.300870000000007 86.49636 38.45801000000001 84.63913 45.637690000000006 84.63913 C 52.772020000000005 84.63913 59.929170000000006 86.49636 66.29352 90.21082 L 70.48352 92.63427 L 45.6377 0 z" stroke-linecap="round" />
</g>
		<g transform="matrix(1 0 0 1 19.19481036872571 -67.03007)" id="Path-01"  >
<linearGradient id="SVGID_23_8_5_480315" gradientUnits="userSpaceOnUse" gradientTransform="matrix(1 0 0 1 45.59240000000001 0)"  x1="19.17226536872569" y1="0" x2="19.17226536872569" y2="116">
<stop offset="0%" style="stop-color:rgb(163,10,247);stop-opacity: 1"/>
<stop offset="57.49999999999999%" style="stop-color:rgb(240,131,27);stop-opacity: 1"/>
</linearGradient>
<path style="stroke: none; stroke-width: 1; stroke-dasharray: none; stroke-linecap: butt; stroke-dashoffset: 0; stroke-linejoin: miter; stroke-miterlimit: 4; fill: url(#SVGID_23_8_5_480315); fill-rule: nonzero; opacity: 1;"  paint-order="stroke"  transform=" translate(-64.7646653687257, -57.96993)" d="M 73.02055 103.77821 L 70.43826 115.93986 L 57.325 107.53719 C 53.76896 105.22806 49.64669000000001 104.07238 45.59243 104.07238 L 45.59243 92.49907999999999 C 50.8018 92.49907999999999 56.03384 93.88034999999999 60.6991 96.59867 L 73.02055 103.77821 z M 83.89216 33.88386 C 82.35162 58.20824 70.43824000000001 92.63512 70.43824000000001 92.63512 L 66.24852000000001 90.21099 C 59.88403000000001 86.49624 52.72662000000001 84.63942999999999 45.59240000000001 84.63942999999999 L 45.59240000000001 0 C 45.59244 0 85.4548 9.55834 83.89216 33.88386 z" stroke-linecap="round" />
</g>
</g>
</g>
</svg>