<?xml version="1.0" standalone="no"?>
<!DOCTYPE svg PUBLIC "-//W3C//DTD SVG 20010904//EN"
 "http://www.w3.org/TR/2001/REC-SVG-20010904/DTD/svg10.dtd">
<svg version="1.0" xmlns="http://www.w3.org/2000/svg"
 width="1577.000000pt" height="1577.000000pt" viewBox="0 0 1577.000000 1577.000000"
 preserveAspectRatio="xMidYMid meet">
<metadata>
Created by potrace 1.14, written by Peter Selinger 2001-2017
</metadata>
<g transform="translate(0.000000,1577.000000) scale(0.100000,-0.100000)"
fill="#000000" stroke="none">
<path d="M9508 14566 c-3 -3 -47 -8 -198 -21 -25 -2 -61 -7 -80 -11 -19 -3
-46 -8 -60 -10 -14 -3 -48 -9 -76 -15 -28 -5 -64 -12 -80 -15 -182 -33 -512
-150 -748 -264 -191 -93 -509 -293 -602 -378 -10 -10 -28 -24 -40 -32 -76 -53
-329 -297 -426 -410 -26 -30 -57 -66 -69 -80 -225 -262 -463 -683 -581 -1030
-81 -237 -117 -397 -163 -705 -23 -153 -22 -605 0 -720 2 -11 7 -46 10 -78 3
-32 13 -95 21 -140 8 -45 17 -93 19 -107 10 -61 68 -275 104 -385 100 -306
246 -593 417 -822 70 -92 327 -355 302 -308 -3 6 -68 116 -145 245 -216 362
-292 509 -368 710 -68 180 -148 450 -169 575 -49 287 -57 367 -58 615 0 205
10 326 43 518 86 504 300 983 617 1382 143 180 327 366 487 493 33 27 67 54
75 60 8 7 38 28 65 47 28 19 52 37 55 40 3 3 37 26 75 51 401 260 805 410
1295 484 27 4 85 10 190 21 78 7 360 7 450 0 458 -40 899 -171 1293 -386 173
-94 386 -239 507 -345 351 -308 589 -617 782 -1015 47 -97 126 -293 147 -365
7 -22 16 -49 21 -60 9 -22 69 -254 76 -295 3 -14 11 -59 19 -100 7 -41 17
-100 21 -130 3 -30 8 -62 9 -70 8 -43 18 -230 18 -340 1 -217 -14 -378 -58
-625 -8 -49 -38 -168 -66 -265 -279 -969 -1050 -1763 -2024 -2085 -108 -35
-346 -98 -415 -110 -19 -3 -46 -8 -60 -10 -36 -8 -59 -12 -110 -20 -25 -4 -52
-9 -61 -10 -9 -2 -40 -6 -70 -9 -30 -4 -70 -9 -89 -11 -113 -15 -282 -25 -479
-30 -95 -2 -176 -6 -179 -9 -3 -3 -3 -6 0 -6 3 0 59 -13 124 -30 114 -29 244
-51 384 -66 71 -7 371 -7 435 0 88 10 211 26 235 31 204 39 289 61 445 111
620 201 1194 606 1596 1124 62 80 199 277 199 285 0 3 19 35 41 72 49 80 146
271 184 363 60 147 145 393 159 463 3 12 16 72 29 132 30 135 43 208 62 365
26 205 22 605 -9 808 -3 20 -8 57 -12 82 -10 77 -43 241 -70 340 -219 834
-734 1535 -1464 1993 -313 197 -767 380 -1095 443 -11 2 -31 6 -45 9 -86 18
-104 21 -255 41 -27 4 -63 8 -80 11 -36 5 -502 13 -507 9z"/>
<path d="M9479 13815 c-3 -2 -34 -6 -69 -9 -36 -4 -78 -8 -95 -11 -16 -3 -57
-10 -90 -16 -498 -86 -983 -344 -1356 -720 -382 -386 -637 -886 -715 -1399 -3
-19 -7 -46 -10 -60 -9 -53 -18 -209 -18 -315 0 -109 11 -312 18 -324 2 -3 7
-28 10 -56 18 -142 80 -370 145 -533 44 -111 129 -292 136 -292 3 0 -2 17 -11
38 -113 264 -177 510 -210 812 -8 72 -8 351 0 415 3 28 8 75 12 105 3 30 10
77 15 105 6 27 12 61 15 75 44 248 167 561 317 810 238 394 648 765 1047 948
296 136 495 189 845 227 52 6 373 6 402 1 12 -3 50 -7 85 -10 34 -3 72 -8 83
-10 11 -2 52 -9 90 -16 233 -41 634 -194 787 -301 14 -11 29 -19 32 -19 21 0
265 -183 356 -267 243 -226 404 -441 545 -728 105 -215 182 -448 215 -655 6
-41 15 -93 19 -115 22 -120 20 -588 -3 -656 -3 -8 -7 -32 -10 -54 -12 -84 -18
-113 -47 -222 -149 -569 -468 -1026 -984 -1411 -79 -59 -307 -185 -439 -243
-174 -75 -461 -157 -646 -183 -42 -6 -170 -19 -188 -19 -6 0 -10 -2 -7 -5 4
-5 142 -3 200 2 103 10 170 18 175 21 3 2 29 6 59 10 115 14 381 91 526 152
397 166 681 375 985 729 50 57 163 220 218 314 52 89 152 282 152 295 0 4 9
25 19 48 50 111 129 377 146 493 4 21 8 46 10 54 5 16 11 65 25 180 8 74 6
466 -3 505 -3 11 -8 45 -11 75 -8 70 -13 95 -37 205 -11 50 -22 100 -25 113
-3 13 -23 78 -45 144 -178 530 -512 983 -961 1302 -179 126 -365 227 -562 303
-80 31 -223 78 -266 88 -8 1 -33 8 -55 13 -22 6 -51 13 -65 16 -14 3 -47 9
-75 15 -27 5 -77 13 -110 16 -33 4 -69 10 -80 12 -24 7 -491 14 -496 8z"/>
<path d="M10095 12945 c-208 -43 -401 -192 -498 -385 -61 -121 -84 -210 -85
-332 -2 -285 144 -532 392 -664 332 -176 741 -79 956 228 131 186 171 433 104
643 -118 370 -490 588 -869 510z m280 -206 c179 -41 324 -172 386 -350 18 -51
23 -86 23 -174 0 -95 -4 -119 -27 -178 -119 -303 -447 -438 -734 -301 -334
159 -409 598 -147 860 130 130 318 184 499 143z"/>
<path d="M7187 8923 c-90 -121 -235 -342 -337 -513 -73 -120 -150 -256 -150
-262 0 -4 49 -97 109 -205 149 -273 182 -332 197 -361 11 -21 9 -30 -18 -76
-17 -28 -40 -67 -51 -86 -85 -151 -180 -310 -186 -311 -36 -3 -105 -8 -201
-13 -63 -3 -155 -9 -205 -12 -49 -3 -117 -7 -150 -9 -33 -2 -74 -4 -92 -4 -30
-1 -35 -8 -121 -158 -109 -193 -225 -399 -265 -473 -16 -30 -34 -60 -38 -66
-5 -6 53 -133 146 -319 85 -169 155 -311 155 -315 0 -4 -45 -88 -99 -186 l-99
-179 -43 1 c-24 1 -120 5 -214 10 -93 4 -219 8 -280 8 l-110 1 -183 -330
c-101 -181 -186 -337 -189 -345 -4 -8 -30 -58 -60 -111 -29 -53 -53 -101 -53
-107 0 -6 11 -35 24 -64 90 -199 235 -542 231 -546 -3 -3 -12 -7 -20 -8 -52
-8 -613 -126 -623 -132 -15 -8 -32 -38 -137 -237 -37 -71 -98 -186 -135 -255
l-67 -125 2 -105 c3 -117 14 -429 20 -560 2 -47 7 -155 10 -240 8 -206 12
-264 20 -292 13 -45 28 -78 35 -78 9 0 28 50 36 97 6 29 11 359 14 858 l2 290
145 253 c106 184 151 254 167 257 11 2 73 13 136 24 63 11 129 22 145 25 17 3
41 8 55 10 292 50 450 82 450 92 0 9 -175 447 -199 499 -6 11 -29 66 -52 123
l-42 103 19 37 c11 20 21 39 24 42 3 3 18 30 34 60 16 30 53 96 83 147 29 50
53 93 53 95 0 3 40 74 88 159 l88 154 70 -1 c84 -2 310 -11 460 -20 127 -7
109 -19 185 121 24 44 89 163 145 265 l103 185 -159 310 -158 311 27 49 c15
28 49 91 76 140 27 50 56 104 65 120 108 197 123 221 138 221 19 0 210 13 292
20 30 2 82 6 115 9 33 2 96 7 140 11 44 4 87 7 95 6 18 -1 346 603 343 633 -1
11 -59 117 -129 235 -70 118 -135 229 -144 245 -10 17 -27 46 -39 66 l-21 36
101 198 c55 109 124 248 151 309 61 133 149 349 144 353 -2 2 -33 -36 -69 -84z"/>
<path d="M8620 7093 c-106 -186 -201 -351 -210 -368 -118 -205 -181 -315 -225
-390 -29 -49 -64 -110 -77 -135 -14 -25 -121 -211 -238 -415 -457 -796 -567
-987 -678 -1180 -198 -343 -224 -388 -255 -445 -16 -30 -38 -66 -47 -80 -9
-14 -19 -29 -21 -35 -3 -9 -182 -321 -230 -403 -14 -24 -93 -161 -282 -492
-33 -58 -68 -118 -78 -135 -11 -16 -22 -36 -25 -43 -4 -8 -45 -80 -92 -160
-47 -81 -99 -172 -116 -202 -17 -31 -80 -141 -140 -246 l-109 -189 -59 -3
c-32 -2 -67 -5 -78 -7 -10 -2 -50 -7 -87 -10 -37 -4 -76 -9 -87 -11 -10 -2
-44 -6 -75 -10 -31 -3 -74 -10 -96 -15 -60 -13 -90 -12 -78 3 6 7 31 52 57
101 113 213 141 265 256 482 68 127 143 268 168 315 25 47 75 141 112 210 37
69 98 184 135 255 37 72 71 135 75 140 4 6 33 60 65 120 106 201 211 399 335
630 15 28 53 100 85 160 32 61 72 137 90 170 58 109 111 207 240 450 70 132
144 272 165 310 20 39 57 106 80 150 24 44 57 107 75 140 49 91 117 219 175
330 29 55 68 129 88 165 106 197 154 289 242 455 35 66 66 125 70 130 4 6 31
55 59 110 28 55 75 143 102 195 100 186 28 69 -221 -365 -139 -242 -388 -674
-553 -960 -349 -606 -333 -577 -365 -634 -14 -25 -38 -68 -55 -95 -16 -28 -40
-69 -53 -91 -12 -22 -81 -141 -152 -265 -208 -360 -415 -719 -443 -769 -36
-64 -244 -424 -283 -491 -18 -30 -87 -149 -153 -265 -67 -115 -229 -397 -360
-625 -132 -228 -252 -438 -268 -466 l-29 -51 -280 -57 c-249 -50 -301 -61
-341 -70 -14 -3 -129 -29 -135 -31 -110 -24 -170 -41 -170 -45 0 -9 424 1 650
15 36 2 110 7 165 10 186 10 240 14 305 20 140 13 167 15 220 21 91 9 146 15
253 30 106 14 272 45 278 52 3 4 30 52 59 107 54 103 93 176 157 292 20 38 43
82 51 98 9 17 59 111 112 210 53 99 118 221 145 270 26 50 60 113 75 140 15
28 136 255 270 505 133 250 274 514 313 585 38 72 92 173 120 225 27 52 78
147 112 210 34 63 83 153 107 200 25 47 63 117 83 155 21 39 56 104 78 145 22
41 52 98 67 125 15 28 56 104 90 170 35 66 66 125 70 130 4 6 35 64 70 130 35
66 91 172 125 235 34 63 86 160 115 215 29 55 81 152 115 215 59 108 82 151
200 375 26 50 55 104 65 120 10 17 43 80 75 140 32 61 72 137 90 170 83 153
135 255 132 255 -2 0 -91 -152 -197 -337z"/>
</g>
</svg>
